<svg width="25" height="24" viewBox="0 0 25 24" fill="none" xmlns="http://www.w3.org/2000/svg">
<path fill-rule="evenodd" clip-rule="evenodd" d="M11.8531 2.0625C9.38908 2.0625 7.02598 3.04133 5.28365 4.78365C3.54133 6.52598 2.5625 8.88908 2.5625 11.3531C2.5625 13.8171 3.54133 16.1802 5.28365 17.9225C7.02598 19.6649 9.38908 20.6437 11.8531 20.6437C14.0042 20.6437 16.0784 19.8977 17.7298 18.5489L21.6406 22.4667L22.9676 21.142L19.055 17.2224C20.3999 15.5722 21.1437 13.501 21.1437 11.3531C21.1437 8.88908 20.1649 6.52598 18.4225 4.78365C16.6802 3.04133 14.3171 2.0625 11.8531 2.0625ZM6.60948 6.10948C8.00017 4.71878 9.88636 3.9375 11.8531 3.9375C13.8198 3.9375 15.706 4.71878 17.0967 6.10948C18.4874 7.50017 19.2687 9.38636 19.2687 11.3531C19.2687 13.3198 18.4874 15.206 17.0967 16.5967C15.706 17.9874 13.8198 18.7687 11.8531 18.7687C9.88636 18.7687 8.00017 17.9874 6.60948 16.5967C5.21878 15.206 4.4375 13.3198 4.4375 11.3531C4.4375 9.38636 5.21878 7.50017 6.60948 6.10948Z" fill="#595959"/>
</svg>
