<svg width="24" height="25" viewBox="0 0 24 25" fill="none" xmlns="http://www.w3.org/2000/svg">
<path d="M12 4.85718C13.0609 4.85718 14.0783 5.2786 14.8284 6.02875C15.5786 6.7789 16 7.79631 16 8.85718C16 9.91804 15.5786 10.9355 14.8284 11.6856C14.0783 12.4358 13.0609 12.8572 12 12.8572C10.9391 12.8572 9.92172 12.4358 9.17157 11.6856C8.42143 10.9355 8 9.91804 8 8.85718C8 7.79631 8.42143 6.7789 9.17157 6.02875C9.92172 5.2786 10.9391 4.85718 12 4.85718ZM12 6.85718C11.4696 6.85718 10.9609 7.06789 10.5858 7.44296C10.2107 7.81804 10 8.32674 10 8.85718C10 9.38761 10.2107 9.89632 10.5858 10.2714C10.9609 10.6465 11.4696 10.8572 12 10.8572C12.5304 10.8572 13.0391 10.6465 13.4142 10.2714C13.7893 9.89632 14 9.38761 14 8.85718C14 8.32674 13.7893 7.81804 13.4142 7.44296C13.0391 7.06789 12.5304 6.85718 12 6.85718ZM12 13.8572C14.67 13.8572 20 15.1872 20 17.8572V20.8572H4V17.8572C4 15.1872 9.33 13.8572 12 13.8572ZM12 15.7572C9.03 15.7572 5.9 17.2172 5.9 17.8572V18.9572H18.1V17.8572C18.1 17.2172 14.97 15.7572 12 15.7572Z" fill="black"/>
</svg>
