<svg width="24" height="25" viewBox="0 0 24 25" fill="none" xmlns="http://www.w3.org/2000/svg">
<path d="M11.5 22.8572C12.61 22.8572 13.5 21.9672 13.5 20.8572H9.5C9.5 21.9672 10.4 22.8572 11.5 22.8572ZM18 12.8572C17.84 12.8572 17.67 12.8572 17.5 12.8572C17 12.8572 16.5 12.7772 16 12.6472V17.8572H7V11.3572C7 8.85718 9 6.85718 11.5 6.85718C11.68 6.85718 11.85 6.88718 12 6.90718C12.1 5.91718 12.45 4.99718 13 4.22718C12.92 3.45718 12.28 2.85718 11.5 2.85718C10.67 2.85718 10 3.52718 10 4.35718V5.03718C7.13 5.71718 5 8.28718 5 11.3572V16.8572L3 18.8572V19.8572H20V18.8572L18 16.8572V12.8572Z" fill="black"/>
<circle cx="17.5" cy="7.35718" r="3.5" fill="#E94833"/>
</svg>
