<svg width="21" height="22" viewBox="0 0 21 22" fill="none" xmlns="http://www.w3.org/2000/svg">
<path fill-rule="evenodd" clip-rule="evenodd" d="M9.3531 0.919678C6.88908 0.919678 4.52598 1.89851 2.78365 3.64083C1.04133 5.38316 0.0625 7.74626 0.0625 10.2103C0.0625 12.6743 1.04133 15.0374 2.78365 16.7797C4.52598 18.522 6.88908 19.5009 9.3531 19.5009C11.5042 19.5009 13.5784 18.7549 15.2298 17.4061L19.1406 21.3238L20.4676 19.9992L16.555 16.0796C17.8999 14.4294 18.6437 12.3582 18.6437 10.2103C18.6437 7.74626 17.6649 5.38316 15.9225 3.64083C14.1802 1.89851 11.8171 0.919678 9.3531 0.919678ZM4.10948 4.96666C5.50017 3.57596 7.38636 2.79468 9.3531 2.79468C11.3198 2.79468 13.206 3.57596 14.5967 4.96666C15.9874 6.35735 16.7687 8.24354 16.7687 10.2103C16.7687 12.177 15.9874 14.0632 14.5967 15.4539C13.206 16.8446 11.3198 17.6259 9.3531 17.6259C7.38636 17.6259 5.50017 16.8446 4.10948 15.4539C2.71878 14.0632 1.9375 12.177 1.9375 10.2103C1.9375 8.24354 2.71878 6.35735 4.10948 4.96666Z" fill="black"/>
</svg>
