<svg width="16" height="15" viewBox="0 0 16 15" fill="none" xmlns="http://www.w3.org/2000/svg">
<path d="M9.32676 6.38755C10.0071 7.0679 10.3998 7.9837 10.4238 8.94552C10.4479 9.90735 10.1013 10.8416 9.45576 11.555L9.32676 11.6908L7.20501 13.8118C6.513 14.5026 5.57857 14.8958 4.60087 14.9075C3.62317 14.9193 2.67953 14.5487 1.97109 13.8748C1.26266 13.2009 0.84545 12.277 0.808401 11.2999C0.771352 10.3228 1.11739 9.36992 1.77276 8.6443L1.90176 8.5093L3.49326 6.9178C3.62822 6.78329 3.80933 6.7052 3.99979 6.69938C4.19026 6.69356 4.37579 6.76046 4.51871 6.88649C4.66164 7.01251 4.75123 7.18821 4.7693 7.37791C4.78737 7.5676 4.73256 7.75706 4.61601 7.9078L4.55376 7.9783L2.96226 9.5698C2.5473 9.98236 2.30938 10.5403 2.29897 11.1254C2.28856 11.7104 2.50649 12.2765 2.90651 12.7036C3.30654 13.1306 3.8572 13.3851 4.44168 13.4129C5.02616 13.4407 5.59849 13.2397 6.03726 12.8526L6.14451 12.7513L8.26626 10.6303C8.47523 10.4214 8.641 10.1733 8.75409 9.9003C8.86719 9.62729 8.9254 9.33468 8.9254 9.03918C8.9254 8.74367 8.86719 8.45106 8.75409 8.17805C8.641 7.90504 8.47523 7.65699 8.26626 7.44805C8.12964 7.3066 8.05404 7.11715 8.05575 6.9205C8.05746 6.72385 8.13634 6.53574 8.27539 6.39669C8.41445 6.25763 8.60256 6.17875 8.7992 6.17705C8.99585 6.17534 9.1853 6.25093 9.32676 6.38755ZM14.0998 1.61455C14.7801 2.2949 15.1728 3.2107 15.1968 4.17252C15.2209 5.13435 14.8743 6.06861 14.2288 6.78205L14.0998 6.9178L12.5075 8.50855C12.3725 8.64306 12.1914 8.72116 12.001 8.72697C11.8105 8.73279 11.625 8.66589 11.482 8.53986C11.3391 8.41384 11.2495 8.23814 11.2315 8.04844C11.2134 7.85875 11.2682 7.66929 11.3848 7.51855L11.447 7.44805L13.0378 5.8573C13.4483 5.44403 13.6826 4.88762 13.6913 4.30513C13.7 3.72264 13.4825 3.15948 13.0844 2.73412C12.6864 2.30877 12.1388 2.05438 11.5571 2.02448C10.9753 1.99458 10.4046 2.1915 9.96501 2.5738L9.85701 2.67505L7.73526 4.7968C7.31345 5.21874 7.07649 5.79093 7.07649 6.38755C7.07649 6.98417 7.31345 7.55636 7.73526 7.9783C7.80494 8.04793 7.86022 8.13061 7.89795 8.22161C7.93569 8.31261 7.95512 8.41015 7.95516 8.50866C7.95519 8.60717 7.93582 8.70473 7.89816 8.79575C7.86049 8.88678 7.80526 8.96949 7.73563 9.03918C7.666 9.10886 7.58332 9.16414 7.49232 9.20187C7.40132 9.2396 7.30378 9.25904 7.20527 9.25908C7.10676 9.25911 7.00921 9.23974 6.91818 9.20208C6.82715 9.16441 6.74444 9.10918 6.67476 9.03955C5.99446 8.3592 5.60168 7.4434 5.57767 6.48158C5.55366 5.51975 5.90025 4.5855 6.54576 3.87205L6.67476 3.73555L8.79651 1.61455C9.49973 0.911534 10.4534 0.516602 11.4478 0.516602C12.4421 0.516602 13.3965 0.911534 14.0998 1.61455Z" fill="#C3CAD9"/>
</svg>
