<svg width="101" height="100" viewBox="0 0 101 100" fill="none" xmlns="http://www.w3.org/2000/svg">
<rect x="0.571289" width="100" height="100" rx="50" fill="url(#paint0_linear_285_122)"/>
<g filter="url(#filter0_d_285_122)">
<g filter="url(#filter1_d_285_122)">
<path d="M65.4414 38.8614L52.5574 31.415C51.7525 30.9543 50.8505 30.6818 49.9212 30.6188C48.992 30.5558 48.0604 30.7038 47.1987 31.0515C44.3133 27.0531 40.3498 23.3663 35.7839 24.0309C33.7813 24.3201 31.9674 25.3521 30.7152 26.9148C29.463 28.4774 28.8676 30.4521 29.0512 32.4328C29.2943 34.5099 30.8374 37.1167 33.0993 39.2561C32.5204 39.7064 32.0525 40.2792 31.7304 40.932C31.4083 41.5848 31.2403 42.3006 31.2391 43.026V72.9778C31.2374 73.4104 31.3294 73.8384 31.5088 74.2335C31.6882 74.6286 31.951 74.9816 32.2798 75.2693C32.6086 75.5571 32.9958 75.7728 33.4159 75.9024C33.836 76.0319 34.2792 76.0723 34.7164 76.0208C39.643 75.4982 44.4412 74.1457 48.9004 72.0224C45.2947 70.2989 42.3354 67.5001 40.4449 64.0255C39.6218 62.4761 39.1683 60.7629 39.1188 59.0157C39.0694 57.2685 39.4253 55.5332 40.1596 53.9412C40.9429 52.3811 42.0835 51.0206 43.4919 49.9665C44.9002 48.9123 46.5381 48.1933 48.2768 47.8657C50.5372 47.3249 52.922 47.64 54.9566 48.7484C56.7321 49.7348 58.1651 51.2226 59.0697 53.0189C59.9743 54.8151 60.3088 56.837 60.0299 58.8224C59.3323 64.3579 56.2144 68.7821 50.7606 71.9704C54.8073 73.738 59.0708 74.9808 63.4438 75.6677C63.9248 75.7528 64.4189 75.7331 64.8913 75.6101C65.3637 75.4871 65.8029 75.2637 66.1779 74.9556C66.5528 74.6476 66.8544 74.2625 67.0614 73.8274C67.2683 73.3924 67.3756 72.918 67.3756 72.4378V42.216C67.3761 41.5402 67.1982 40.8758 66.8592 40.2878C66.5201 39.6998 66.0316 39.2083 65.4414 38.8614V38.8614ZM36.3335 37.3244C33.8391 35.5588 32.1058 33.2325 32.0212 32.1316C31.9225 30.9002 32.3046 29.6781 33.0898 28.7136C33.8751 27.7491 35.0047 27.1145 36.2489 26.9389C39.1978 26.5027 42.1889 29.2445 44.5987 32.5159L36.3335 37.3244ZM46.4695 37.7294C46.47 37.1789 46.6354 36.6407 46.9451 36.182C47.7621 37.5776 48.4927 39.0203 49.1329 40.5023C48.4188 40.4525 47.7504 40.1388 47.2622 39.6243C46.7739 39.1099 46.502 38.4329 46.5012 37.7294H46.4695ZM51.7541 39.1211C51.3525 38.1968 50.6338 36.6909 49.6403 34.9669C50.1065 35.0195 50.552 35.1856 50.9364 35.4501C51.3208 35.7146 51.6321 36.0691 51.8419 36.4816C52.0518 36.894 52.1537 37.3514 52.1384 37.8122C52.123 38.2731 51.991 38.723 51.7541 39.1211Z" fill="white"/>
</g>
<path d="M55.3689 57.7942C55.3627 56.6576 55.0139 55.5483 54.3667 54.6062C53.7195 53.6642 52.8029 52.9316 51.7324 52.5009C50.6619 52.0701 49.4856 51.9607 48.3519 52.1862C47.2181 52.4117 46.1778 52.9621 45.3621 53.768C44.5463 54.5738 43.9918 55.5991 43.7684 56.7143C43.545 57.8295 43.6628 58.9848 44.1069 60.0343C44.551 61.0838 45.3015 61.9805 46.2638 62.6114C47.226 63.2422 48.3568 63.5789 49.5135 63.5789C51.0703 63.5734 52.5611 62.9612 53.6589 61.8767C54.7567 60.7921 55.3717 59.3239 55.3689 57.7942Z" fill="white"/>
</g>
<defs>
<filter id="filter0_d_285_122" x="4.90479" y="8.33325" width="91.3335" height="91.3333" filterUnits="userSpaceOnUse" color-interpolation-filters="sRGB">
<feFlood flood-opacity="0" result="BackgroundImageFix"/>
<feColorMatrix in="SourceAlpha" type="matrix" values="0 0 0 0 0 0 0 0 0 0 0 0 0 0 0 0 0 0 127 0" result="hardAlpha"/>
<feOffset dy="4"/>
<feGaussianBlur stdDeviation="2"/>
<feComposite in2="hardAlpha" operator="out"/>
<feColorMatrix type="matrix" values="0 0 0 0 0.0121875 0 0 0 0 0.243242 0 0 0 0 0.4875 0 0 0 1 0"/>
<feBlend mode="normal" in2="BackgroundImageFix" result="effect1_dropShadow_285_122"/>
<feBlend mode="normal" in="SourceGraphic" in2="effect1_dropShadow_285_122" result="shape"/>
</filter>
<filter id="filter1_d_285_122" x="19.0186" y="13.9529" width="58.3569" height="72.0896" filterUnits="userSpaceOnUse" color-interpolation-filters="sRGB">
<feFlood flood-opacity="0" result="BackgroundImageFix"/>
<feColorMatrix in="SourceAlpha" type="matrix" values="0 0 0 0 0 0 0 0 0 0 0 0 0 0 0 0 0 0 127 0" result="hardAlpha"/>
<feOffset/>
<feGaussianBlur stdDeviation="5"/>
<feComposite in2="hardAlpha" operator="out"/>
<feColorMatrix type="matrix" values="0 0 0 0 0.00147569 0 0 0 0 0.172923 0 0 0 0 0.354167 0 0 0 0.5 0"/>
<feBlend mode="normal" in2="BackgroundImageFix" result="effect1_dropShadow_285_122"/>
<feBlend mode="normal" in="SourceGraphic" in2="effect1_dropShadow_285_122" result="shape"/>
</filter>
<linearGradient id="paint0_linear_285_122" x1="7.65462" y1="7.08333" x2="80.5713" y2="105.833" gradientUnits="userSpaceOnUse">
<stop stop-color="#1D61D7"/>
<stop offset="0.609375" stop-color="#0C529C"/>
</linearGradient>
</defs>
</svg>
