<svg width="100" height="100" viewBox="0 0 100 100" fill="none" xmlns="http://www.w3.org/2000/svg">
<rect width="100" height="100" rx="50" fill="url(#paint0_linear_285_1249)"/>
<g filter="url(#filter0_d_285_1249)">
<path fill-rule="evenodd" clip-rule="evenodd" d="M71.3385 33.7422C66.3477 28.7526 58.2272 28.7526 53.2364 33.7422C52.266 34.7133 49.0049 37.9751 48.0884 38.8915L49.132 39.9351C50.9466 41.7497 53.8982 41.7497 55.7116 39.9351L57.0142 38.6324C57.2634 38.8843 59.0688 40.6886 61.2949 42.9134C65.2558 46.872 70.5487 52.1618 70.7774 52.4067C76.2415 47.5123 76.5652 38.9343 71.3385 33.7422ZM46.5279 42.5387C49.3309 45.3417 53.6489 45.7272 56.8693 43.6965L67.9755 54.803C68.7883 55.6158 68.7883 56.9393 67.9755 57.7533C67.1992 58.5615 65.8014 58.5619 65.0252 57.7533L56.8287 49.5567L54.2246 52.1608L62.4199 60.3574C64.2968 62.3939 61.5071 65.1837 59.4708 63.3077L51.2743 55.1111L48.6702 57.7152C48.6702 57.7152 56.9294 65.9744 56.9613 66.0051L56.9576 66.01C58.5059 67.854 56.334 70.3856 54.2811 69.1531L54.2393 69.2022C52.8232 67.5641 50.5058 66.8775 48.4382 67.4317C47.8332 64.9783 45.3662 63.1182 42.8825 63.1714C42.7615 60.5296 40.5255 58.1357 37.8843 57.8503C38.2071 53.3081 33.3021 50.1942 29.3133 52.4236C23.8361 47.5311 23.5006 38.9408 28.735 33.7419C33.9412 28.5004 42.5417 28.8486 47.4327 34.3373L42.879 38.891L46.5279 42.5387ZM30.655 55.9831C31.4696 55.1702 32.7917 55.1693 33.6053 55.9831C34.4195 56.7971 34.4195 58.1206 33.6053 58.9334L32.0313 60.5074C29.9939 62.3826 27.2059 59.5935 29.0823 57.5571C29.1901 57.4487 29.5351 57.1037 29.8771 56.7616L29.878 56.7607C30.2208 56.4179 30.5603 56.0783 30.655 55.9831ZM35.899 61.8837C36.6933 61.2806 37.9101 61.3705 38.605 62.0937C39.1026 62.584 39.3177 63.315 39.1723 63.9967C39.0912 64.3908 38.896 64.753 38.605 65.044L37.2164 66.4326C36.7906 66.9124 36.2093 67.2387 35.5565 67.2282C34.4352 67.2509 33.4468 66.2647 33.4705 65.1422C33.4705 64.5848 33.6866 64.0605 34.0807 63.6676L35.8782 61.8702L35.899 61.8837ZM42.8703 66.8512C42.3129 66.8512 41.7886 67.0685 41.3945 67.4627L39.8205 69.0366L39.8205 69.0367C39.8131 69.044 39.8058 69.0514 39.7984 69.06C39.0097 69.8392 39.0215 71.2191 39.8205 71.987C40.6345 72.7997 41.9581 72.7997 42.7708 71.987L44.3461 70.4117C45.6507 69.1104 44.7129 66.8442 42.8703 66.8512ZM48.4308 71.5362C49.2445 70.7224 50.567 70.7233 51.3811 71.5362C52.1894 72.3098 52.1894 73.7111 51.3811 74.4865L49.8072 76.0605C49.0301 76.8682 47.6344 76.8687 46.8568 76.0605C46.0473 75.284 46.0469 73.8867 46.8568 73.1102L48.4308 71.5362Z" fill="white"/>
</g>
<defs>
<filter id="filter0_d_285_1249" x="15" y="20" width="70.0737" height="66.6665" filterUnits="userSpaceOnUse" color-interpolation-filters="sRGB">
<feFlood flood-opacity="0" result="BackgroundImageFix"/>
<feColorMatrix in="SourceAlpha" type="matrix" values="0 0 0 0 0 0 0 0 0 0 0 0 0 0 0 0 0 0 127 0" result="hardAlpha"/>
<feOffset/>
<feGaussianBlur stdDeviation="5"/>
<feComposite in2="hardAlpha" operator="out"/>
<feColorMatrix type="matrix" values="0 0 0 0 0.766667 0 0 0 0 0.0798611 0 0 0 0 0.433266 0 0 0 0.25 0"/>
<feBlend mode="normal" in2="BackgroundImageFix" result="effect1_dropShadow_285_1249"/>
<feBlend mode="normal" in="SourceGraphic" in2="effect1_dropShadow_285_1249" result="shape"/>
</filter>
<linearGradient id="paint0_linear_285_1249" x1="7.08333" y1="7.08333" x2="80" y2="105.833" gradientUnits="userSpaceOnUse">
<stop stop-color="#609CFF"/>
<stop offset="0.609375" stop-color="#1F65ED"/>
</linearGradient>
</defs>
</svg>
