<svg width="101" height="100" viewBox="0 0 101 100" fill="none" xmlns="http://www.w3.org/2000/svg">
<rect x="0.714355" width="100" height="100" rx="50" fill="url(#paint0_linear_285_212)"/>
<g filter="url(#filter0_d_285_212)">
<path fill-rule="evenodd" clip-rule="evenodd" d="M57.0155 26.5625H74.9476C76.1173 26.5646 77.2386 27.0555 78.0657 27.9275C78.8929 28.7996 79.3584 29.9817 79.3604 31.215V65.3255C79.3584 66.5587 78.8929 67.7409 78.0657 68.613C77.2386 69.485 76.1173 69.9759 74.9476 69.978H57.0534C56.7453 69.9785 56.4379 69.9464 56.1359 69.882V55.0372C57.0079 55.0372 57.6221 54.9173 57.9633 54.2857C58.8874 52.3926 59.7176 50.4501 60.4503 48.4661C60.471 48.2961 60.4567 48.1233 60.4084 47.9596C60.36 47.7959 60.2787 47.6452 60.17 47.5177C60.0613 47.3902 59.9278 47.2889 59.7785 47.2208C59.6293 47.1527 59.4679 47.1194 59.3053 47.1231C58.9272 47.1231 58.6735 47.3577 58.4191 47.593C58.1636 47.8294 57.9073 48.0664 57.5235 48.0664C56.8935 48.0664 54.9399 45.8919 53.8909 44.7243C53.6647 44.4725 53.4805 44.2675 53.3608 44.1413L52.6026 43.3899V31.215C52.6066 29.9824 53.0728 28.8015 53.8995 27.9298C54.7262 27.0582 55.8463 26.5667 57.0155 26.5625ZM71.5587 63.1572C71.8168 62.8865 71.9637 62.5197 71.9677 62.1359V58.8743C71.9657 58.4891 71.8197 58.1202 71.5613 57.8478C71.303 57.5754 70.9531 57.4215 70.5878 57.4194H67.5018C67.1364 57.4215 66.7865 57.5754 66.5282 57.8478C66.2698 58.1202 66.1238 58.4891 66.1218 58.8743V62.1279C66.1238 62.5131 66.2698 62.8819 66.5282 63.1543C66.7865 63.4267 67.1364 63.5807 67.5018 63.5828H70.5878C70.9518 63.5807 71.3005 63.4278 71.5587 63.1572ZM71.5587 51.1661C71.8168 50.8955 71.9637 50.5287 71.9677 50.1448V46.8993C71.9657 46.514 71.8197 46.1452 71.5613 45.8728C71.303 45.6004 70.9531 45.4465 70.5878 45.4444H67.5018C67.1364 45.4465 66.7865 45.6004 66.5282 45.8728C66.2698 46.1452 66.1238 46.514 66.1218 46.8993V50.1288C66.1218 50.5154 66.2669 50.8863 66.5255 51.1605C66.7841 51.4346 67.1351 51.5896 67.5018 51.5918H70.5878C70.9518 51.5897 71.3005 51.4368 71.5587 51.1661ZM71.564 38.2261C71.8226 37.952 71.9677 37.5811 71.9677 37.1945V33.949C71.9657 33.5637 71.8197 33.1949 71.5613 32.9225C71.303 32.6501 70.9531 32.4962 70.5878 32.4941H67.5018C67.1364 32.4962 66.7865 32.6501 66.5282 32.9225C66.2698 33.1949 66.1238 33.5637 66.1218 33.949V37.2025C66.1238 37.5877 66.2698 37.9566 66.5282 38.229C66.7865 38.5014 67.1364 38.6553 67.5018 38.6574H70.5878C70.9545 38.6553 71.3054 38.5003 71.564 38.2261ZM56.9624 53.9259L59.3812 48.538C59.548 48.1702 59.04 47.8745 58.8049 48.2022C58.6366 48.4318 58.4239 48.621 58.1809 48.7573C57.938 48.8935 57.6703 48.9738 57.3957 48.9927C57.121 49.0116 56.8457 48.9687 56.588 48.8669C56.3303 48.7651 56.0961 48.6066 55.9009 48.4021L42.9276 34.7563C42.6142 34.4261 42.2413 34.1654 41.8309 33.9895C41.4205 33.8136 40.9808 33.726 40.5378 33.732C40.0948 33.7379 39.6574 33.8373 39.2513 34.0242C38.8453 34.2111 38.4789 34.4818 38.1736 34.8203L24.1843 50.2727C24.1479 50.3125 24.1034 50.3429 24.0541 50.3617C24.0048 50.3805 23.9522 50.387 23.9001 50.3808C23.848 50.3746 23.798 50.3559 23.754 50.326C23.7099 50.2962 23.6729 50.2561 23.6459 50.2087L22.6981 48.514C22.656 48.4429 22.5912 48.39 22.5155 48.3649C22.4397 48.3397 22.3578 48.3438 22.2847 48.3766C22.2115 48.4094 22.1519 48.4686 22.1165 48.5436C22.0811 48.6186 22.0722 48.7045 22.0915 48.7858L23.79 53.894C23.8145 53.9621 23.8581 54.0207 23.915 54.0621C23.9719 54.1035 24.0393 54.1257 24.1084 54.1258H26.1177C26.1419 54.1236 26.1662 54.1267 26.1891 54.1349C26.2121 54.1432 26.2331 54.1563 26.251 54.1736C26.2688 54.1909 26.283 54.212 26.2927 54.2354C26.3024 54.2588 26.3074 54.2841 26.3073 54.3097L26.4968 69.3864C26.5023 69.7349 26.6225 70.0707 26.8369 70.3361C27.0513 70.6015 27.3465 70.7801 27.6721 70.8413H28.3393C29.9164 70.7613 32.3883 70.7294 35.2013 70.7294C35.501 70.7291 35.7947 70.64 36.0487 70.4723C36.3028 70.3046 36.5071 70.065 36.6383 69.7809C36.7695 69.4967 36.8223 69.1795 36.7908 68.8652C36.7593 68.5509 36.6446 68.2523 36.46 68.0034C32.2518 62.3117 32.358 58.8902 32.3883 58.4825V58.3866C32.3883 53.886 36.1794 50.2407 40.7288 50.2407C45.2782 50.2407 49.0693 53.91 49.0693 58.4426V58.5784C49.0693 59.2979 48.9479 62.8073 44.6336 68.4351C44.4821 68.6336 44.3812 68.8697 44.3405 69.1209C44.2998 69.3721 44.3207 69.6301 44.4013 69.8704C44.4818 70.1107 44.6193 70.3253 44.8006 70.4938C44.9819 70.6624 45.2011 70.7792 45.4373 70.8333H54.4906C54.5354 70.8343 54.5788 70.8171 54.6119 70.7853C54.7518 70.6454 54.863 70.4768 54.9387 70.2898C55.0143 70.1028 55.0527 69.9014 55.0517 69.6981L54.991 54.3097C54.9899 54.2834 54.994 54.2573 55.0032 54.2329C55.0124 54.2085 55.0265 54.1865 55.0444 54.1683C55.0624 54.1501 55.0839 54.1362 55.1073 54.1275C55.1308 54.1188 55.1558 54.1155 55.1806 54.1178H56.6212C56.6898 54.126 56.7592 54.112 56.8201 54.0777C56.881 54.0435 56.9306 53.9906 56.9624 53.9259ZM41.6444 64.9282C44.7114 64.4033 46.7942 61.3564 46.2963 58.1228C45.7985 54.8893 42.9086 52.6934 39.8415 53.2183C36.7745 53.7432 34.6918 56.79 35.1896 60.0236C35.6875 63.2572 38.5774 65.453 41.6444 64.9282Z" fill="white"/>
</g>
<defs>
<filter id="filter0_d_285_212" x="12.0815" y="16.5625" width="77.2788" height="64.2788" filterUnits="userSpaceOnUse" color-interpolation-filters="sRGB">
<feFlood flood-opacity="0" result="BackgroundImageFix"/>
<feColorMatrix in="SourceAlpha" type="matrix" values="0 0 0 0 0 0 0 0 0 0 0 0 0 0 0 0 0 0 127 0" result="hardAlpha"/>
<feOffset/>
<feGaussianBlur stdDeviation="5"/>
<feComposite in2="hardAlpha" operator="out"/>
<feColorMatrix type="matrix" values="0 0 0 0 0.783333 0 0 0 0 0.174116 0 0 0 0 0.0946528 0 0 0 0.5 0"/>
<feBlend mode="normal" in2="BackgroundImageFix" result="effect1_dropShadow_285_212"/>
<feBlend mode="normal" in="SourceGraphic" in2="effect1_dropShadow_285_212" result="shape"/>
</filter>
<linearGradient id="paint0_linear_285_212" x1="7.79769" y1="7.08333" x2="80.7144" y2="105.833" gradientUnits="userSpaceOnUse">
<stop stop-color="#FB8E7F"/>
<stop offset="0.609375" stop-color="#E94833"/>
</linearGradient>
</defs>
</svg>
