<svg width="101" height="100" viewBox="0 0 101 100" fill="none" xmlns="http://www.w3.org/2000/svg">
<rect x="0.856934" width="100" height="100" rx="50" fill="url(#paint0_linear_285_1284)"/>
<g filter="url(#filter0_d_285_1284)">
<path fill-rule="evenodd" clip-rule="evenodd" d="M39.2439 34.528H41.6356C41.7963 34.5255 41.9497 34.4609 42.0624 34.348C42.1752 34.2352 42.2384 34.0832 42.2384 33.9248V33.0536C42.237 32.9745 42.252 32.8959 42.2824 32.8226C42.3129 32.7494 42.3581 32.683 42.4154 32.6275C42.4727 32.5719 42.5408 32.5285 42.6157 32.4997C42.6905 32.4709 42.7706 32.4574 42.8509 32.46L58.7958 32.5845C58.9414 32.5856 59.0816 32.6386 59.1907 32.7336C59.2997 32.8286 59.3701 32.9593 59.3889 33.1015L59.525 34.0589C59.5459 34.2019 59.6183 34.3327 59.7289 34.4276C59.8395 34.5224 59.981 34.5751 60.1277 34.5759H62.4612C62.6236 34.5759 62.7794 34.5123 62.8943 34.3992C63.0091 34.2861 63.0737 34.1327 63.0737 33.9727V30.2962C63.0737 29.9966 62.9528 29.7093 62.7376 29.4974C62.5225 29.2855 62.2307 29.1665 61.9264 29.1665H39.8078C39.4958 29.1665 39.1965 29.2886 38.9759 29.5058C38.7553 29.7231 38.6313 30.0177 38.6313 30.325V33.9248C38.6313 34.0848 38.6959 34.2382 38.8107 34.3514C38.9256 34.4645 39.0814 34.528 39.2439 34.528ZM25.6809 48.1808L30.1144 50.268C31.7975 51.0551 33.6373 51.4639 35.5006 51.4648H41.4605C41.8109 49.3007 42.9333 47.3306 44.6262 45.9083C46.3191 44.486 48.4716 43.7047 50.6969 43.7047C52.9222 43.7047 55.0746 44.486 56.7675 45.9083C58.4604 47.3306 59.5828 49.3007 59.9332 51.4648H67.9931C69.2827 51.4721 70.5511 51.1417 71.6683 50.5074L76.1698 47.8649C76.3907 47.7393 76.5749 47.5596 76.7044 47.3432C76.8338 47.1267 76.9042 46.881 76.9087 46.6298V37.4674C76.9036 37.2712 76.8594 37.078 76.7785 36.8986C76.6976 36.7193 76.5816 36.5575 76.4371 36.4223C76.2926 36.2872 76.1225 36.1814 75.9365 36.111C75.7505 36.0406 75.5523 36.007 75.3531 36.0121H26.3712C26.172 36.007 25.9738 36.0406 25.7878 36.111C25.6018 36.1814 25.4317 36.2872 25.2872 36.4223C25.1428 36.5575 25.0267 36.7193 24.9458 36.8986C24.8649 37.078 24.8207 37.2712 24.8156 37.4674V46.9075C24.8231 47.1785 24.9083 47.4419 25.0614 47.6673C25.2146 47.8926 25.4293 48.0707 25.6809 48.1808ZM56.9874 59.5835L56.8027 60.2633C56.7647 60.3905 56.7627 60.5255 56.797 60.6538C56.8312 60.782 56.9004 60.8986 56.9971 60.9909L60.1958 63.9206C60.3123 64.034 60.4695 64.0976 60.6333 64.0976C60.7971 64.0976 60.9543 64.034 61.0708 63.9206L61.4597 63.5185C61.5662 63.3957 61.6248 63.2396 61.625 63.0781C61.6216 62.9979 61.6018 62.9193 61.5667 62.8469C61.5316 62.7745 61.482 62.7098 61.4208 62.6568L58.2319 59.7176C58.1516 59.6477 58.0573 59.5954 57.9551 59.5641C57.8529 59.5327 57.7451 59.523 57.6388 59.5356L56.9874 59.5835ZM72.9419 53.5136L74.4003 52.6423C74.6525 52.4943 74.9403 52.4152 75.234 52.413C75.5276 52.4109 75.8166 52.4858 76.071 52.6301C76.3255 52.7744 76.5364 52.9829 76.6819 53.2341C76.8274 53.4853 76.9023 53.7701 76.8989 54.0593V69.2152C76.9002 69.4302 76.8585 69.6433 76.7761 69.8424C76.6937 70.0415 76.5723 70.2227 76.4189 70.3756C76.2654 70.5285 76.0828 70.6502 75.8816 70.7336C75.6804 70.8171 75.4644 70.8606 75.2461 70.8619H26.4684C26.2501 70.8606 26.0341 70.8171 25.8329 70.7336C25.6317 70.6502 25.4491 70.5285 25.2956 70.3756C25.1422 70.2227 25.0208 70.0415 24.9384 69.8424C24.856 69.6433 24.8143 69.4302 24.8156 69.2152V54.1838C24.8114 53.8904 24.8877 53.6014 25.0366 53.3473C25.1855 53.0931 25.4013 52.8834 25.6613 52.7401C25.9213 52.5969 26.2158 52.5256 26.5136 52.5336C26.8115 52.5417 27.1015 52.6289 27.3532 52.7859L28.5879 53.5519C29.4134 54.0776 30.3757 54.3569 31.3588 54.3561H40.4688C40.8038 56.1361 41.6276 57.7917 42.8508 59.1432C44.3845 60.8402 46.452 61.9814 48.7224 62.3841C50.9928 62.7868 53.3348 62.4277 55.3734 61.3644C55.501 61.6529 55.6862 61.9134 55.9178 62.1303L59.1165 65.06C59.5204 65.4376 60.0568 65.6468 60.6138 65.644H60.7013C60.9893 65.6343 61.2726 65.5684 61.5347 65.45C61.7967 65.3317 62.0322 65.1633 62.2277 64.9547L62.6166 64.5525C62.8135 64.3432 62.9665 64.0975 63.0666 63.8296C63.1667 63.5618 63.212 63.2771 63.1999 62.992C63.1923 62.7079 63.1263 62.4282 63.006 62.1699C62.8857 61.9116 62.7135 61.6799 62.4999 61.4888L59.3012 58.5496C59.1923 58.4468 59.0716 58.3568 58.9415 58.2815C59.7477 57.1645 60.3044 55.8919 60.5749 54.5476H69.1793C70.5059 54.5482 71.8073 54.1906 72.9419 53.5136ZM44.6301 50.8807C44.6301 47.9319 47.4691 45.5479 50.7845 45.5479C52.2706 45.511 53.7128 46.0466 54.8041 47.0407C55.8954 48.0349 56.5496 49.4092 56.6277 50.8711V51.1296C56.6471 51.6849 56.5402 54.7582 51.6789 59.6506C51.5402 59.7919 51.374 59.9043 51.1903 59.981C51.0066 60.0577 50.809 60.0973 50.6095 60.0973C50.4099 60.0973 50.2123 60.0577 50.0286 59.981C49.8449 59.9043 49.6787 59.7919 49.54 59.6506C44.5979 54.5874 44.6262 51.4728 44.63 51.0582C44.63 51.0486 44.6301 51.0405 44.6301 51.0339V50.8807ZM48.6941 53.9558C49.2638 54.3429 49.9369 54.5554 50.6289 54.5667C51.5658 54.5744 52.4676 54.2159 53.1365 53.5697C53.8054 52.9236 54.1868 52.0427 54.1971 51.12C54.1989 50.4385 53.996 49.7717 53.6141 49.2034C53.2321 48.635 52.688 48.1906 52.0502 47.9259C51.4125 47.6613 50.7095 47.5882 50.0297 47.7159C49.3498 47.8436 48.7235 48.1663 48.2294 48.6436C47.7354 49.1208 47.3956 49.7313 47.2529 50.3981C47.1101 51.065 47.1708 51.7586 47.4273 52.3916C47.6837 53.0246 48.1244 53.5688 48.6941 53.9558Z" fill="white"/>
</g>
<defs>
<filter id="filter0_d_285_1284" x="14.8154" y="19.1665" width="72.0933" height="61.6953" filterUnits="userSpaceOnUse" color-interpolation-filters="sRGB">
<feFlood flood-opacity="0" result="BackgroundImageFix"/>
<feColorMatrix in="SourceAlpha" type="matrix" values="0 0 0 0 0 0 0 0 0 0 0 0 0 0 0 0 0 0 127 0" result="hardAlpha"/>
<feOffset/>
<feGaussianBlur stdDeviation="5"/>
<feComposite in2="hardAlpha" operator="out"/>
<feColorMatrix type="matrix" values="0 0 0 0 0 0 0 0 0 0.341667 0 0 0 0 0.217183 0 0 0 0.5 0"/>
<feBlend mode="normal" in2="BackgroundImageFix" result="effect1_dropShadow_285_1284"/>
<feBlend mode="normal" in="SourceGraphic" in2="effect1_dropShadow_285_1284" result="shape"/>
</filter>
<linearGradient id="paint0_linear_285_1284" x1="7.94027" y1="7.08333" x2="80.8569" y2="105.833" gradientUnits="userSpaceOnUse">
<stop stop-color="#1DB87F"/>
<stop offset="0.609375" stop-color="#008252"/>
</linearGradient>
</defs>
</svg>
