<svg width="16" height="14" viewBox="0 0 16 14" fill="none" xmlns="http://www.w3.org/2000/svg">
<path d="M15.845 2.21387C15.2675 2.47637 14.645 2.64887 14 2.73137C14.66 2.33387 15.17 1.70387 15.41 0.946367C14.7875 1.32137 14.0975 1.58387 13.37 1.73387C12.7775 1.08887 11.945 0.713867 11 0.713867C9.2375 0.713867 7.7975 2.15387 7.7975 3.93137C7.7975 4.18637 7.8275 4.43387 7.88 4.66637C5.21 4.53137 2.8325 3.24887 1.25 1.30637C0.972499 1.77887 0.814999 2.33387 0.814999 2.91887C0.814999 4.03637 1.3775 5.02637 2.2475 5.58887C1.715 5.58887 1.22 5.43887 0.784999 5.21387C0.784999 5.21387 0.784999 5.21387 0.784999 5.23637C0.784999 6.79637 1.895 8.10137 3.365 8.39387C3.095 8.46887 2.81 8.50637 2.5175 8.50637C2.315 8.50637 2.1125 8.48387 1.9175 8.44637C2.3225 9.71387 3.5 10.6589 4.9175 10.6814C3.8225 11.5514 2.435 12.0614 0.919999 12.0614C0.664999 12.0614 0.409999 12.0464 0.154999 12.0164C1.58 12.9314 3.275 13.4639 5.09 13.4639C11 13.4639 14.2475 8.55887 14.2475 4.30637C14.2475 4.16387 14.2475 4.02887 14.24 3.88637C14.87 3.43637 15.41 2.86637 15.845 2.21387Z" fill="#C3CAD9"/>
</svg>
