<svg width="55" height="55" viewBox="0 0 55 55" fill="none" xmlns="http://www.w3.org/2000/svg">
<rect x="0.875" y="1.35693" width="53" height="53" rx="26.5" fill="#F7F7FC"/>
<g clip-path="url(#clip0_457_12251)">
<path d="M31.9937 15.8569C32.0496 15.8569 32.1054 15.8569 32.1644 15.8569C32.3014 17.5495 31.6554 18.8141 30.8703 19.7299C30.0999 20.6394 29.045 21.5215 27.3387 21.3877C27.2249 19.7194 27.872 18.5485 28.6561 17.6348C29.3833 16.7833 30.7164 16.0256 31.9937 15.8569Z" fill="black"/>
<path d="M37.1587 33.4738C37.1587 33.4907 37.1587 33.5054 37.1587 33.5212C36.6792 34.9735 35.9953 36.2181 35.1606 37.3732C34.3986 38.4218 33.4649 39.8329 31.7976 39.8329C30.357 39.8329 29.4001 38.9066 27.9236 38.8813C26.3617 38.856 25.5028 39.6559 24.0748 39.8572C23.9115 39.8572 23.7481 39.8572 23.5879 39.8572C22.5393 39.7054 21.6931 38.8749 21.0765 38.1267C19.2586 35.9156 17.8538 33.0596 17.5924 29.4048C17.5924 29.0465 17.5924 28.6892 17.5924 28.3309C17.7031 25.7151 18.974 23.5884 20.6634 22.5577C21.555 22.0097 22.7807 21.5428 24.1454 21.7515C24.7303 21.8421 25.3279 22.0424 25.8517 22.2405C26.348 22.4313 26.9688 22.7696 27.5568 22.7516C27.9552 22.74 28.3515 22.5324 28.753 22.3859C29.9291 21.9612 31.0821 21.4743 32.6018 21.703C34.4281 21.9791 35.7244 22.7906 36.5254 24.0426C34.9804 25.0259 33.7589 26.5077 33.9676 29.038C34.1531 31.3365 35.4894 32.6813 37.1587 33.4738Z" fill="black"/>
</g>
<rect x="0.875" y="1.35693" width="53" height="53" rx="26.5" stroke="#EBEBF4"/>
<defs>
<clipPath id="clip0_457_12251">
<rect width="24" height="24" fill="white" transform="translate(15.375 15.8569)"/>
</clipPath>
</defs>
</svg>
