<svg width="21" height="25" viewBox="0 0 21 25" fill="none" xmlns="http://www.w3.org/2000/svg">
<path d="M14.9937 0.856934C15.0496 0.856934 15.1054 0.856934 15.1644 0.856934C15.3014 2.54946 14.6554 3.81412 13.8703 4.72994C13.0999 5.63944 12.045 6.52154 10.3387 6.38769C10.2249 4.7194 10.872 3.54854 11.6561 2.63483C12.3833 1.78329 13.7164 1.02555 14.9937 0.856934Z" fill="black"/>
<path d="M20.1587 18.4738C20.1587 18.4907 20.1587 18.5054 20.1587 18.5212C19.6792 19.9735 18.9953 21.2181 18.1606 22.3732C17.3986 23.4218 16.4649 24.8329 14.7976 24.8329C13.357 24.8329 12.4001 23.9066 10.9236 23.8813C9.36174 23.856 8.50283 24.6559 7.07482 24.8572C6.91147 24.8572 6.74812 24.8572 6.58793 24.8572C5.53932 24.7054 4.69305 23.8749 4.07653 23.1267C2.25859 20.9156 0.853769 18.0596 0.592407 14.4048C0.592407 14.0465 0.592407 13.6892 0.592407 13.3309C0.703065 10.7151 1.97404 8.58841 3.66341 7.55772C4.55499 7.0097 5.78066 6.54283 7.14543 6.7515C7.73033 6.84214 8.32788 7.04237 8.85166 7.2405C9.34804 7.43126 9.96877 7.76955 10.5568 7.75163C10.9552 7.74004 11.3515 7.53243 11.753 7.38594C12.9291 6.96122 14.0821 6.47433 15.6018 6.70302C17.4281 6.97914 18.7244 7.79063 19.5254 9.04264C17.9804 10.0259 16.7589 11.5077 16.9676 14.038C17.1531 16.3365 18.4894 17.6813 20.1587 18.4738Z" fill="black"/>
</svg>
