<svg width="55" height="55" viewBox="0 0 55 55" fill="none" xmlns="http://www.w3.org/2000/svg">
<rect x="1.125" y="1.35693" width="53" height="53" rx="26.5" fill="#F7F7FC"/>
<g clip-path="url(#clip0_457_21354)">
<path d="M20.9439 30.3606L20.1085 33.4793L17.0551 33.5438C16.1426 31.8513 15.625 29.9149 15.625 27.8571C15.625 25.8672 16.1089 23.9907 16.9667 22.3384H16.9674L19.6858 22.8368L20.8766 25.5388C20.6274 26.2654 20.4915 27.0454 20.4915 27.8571C20.4916 28.7379 20.6512 29.5819 20.9439 30.3606Z" fill="#FBBB00"/>
<path d="M39.4153 25.6152C39.5531 26.3411 39.625 27.0908 39.625 27.857C39.625 28.7161 39.5347 29.5541 39.3626 30.3625C38.7784 33.1133 37.252 35.5152 35.1375 37.215L35.1369 37.2144L31.713 37.0397L31.2284 34.0146C32.6314 33.1917 33.7279 31.904 34.3055 30.3625H27.8888V25.6152H34.3991H39.4153Z" fill="#518EF8"/>
<path d="M35.1368 37.2142L35.1375 37.2148C33.081 38.8678 30.4687 39.8568 27.6249 39.8568C23.0551 39.8568 19.0819 37.3025 17.0551 33.5436L20.9439 30.3604C21.9572 33.0649 24.5663 34.9902 27.6249 34.9902C28.9396 34.9902 30.1713 34.6348 31.2282 34.0144L35.1368 37.2142Z" fill="#28B446"/>
<path d="M35.2846 18.6196L31.3971 21.8022C30.3033 21.1185 29.0103 20.7235 27.625 20.7235C24.4971 20.7235 21.8393 22.7371 20.8767 25.5387L16.9675 22.3382H16.9668C18.964 18.4877 22.9872 15.8569 27.625 15.8569C30.5367 15.8569 33.2064 16.8941 35.2846 18.6196Z" fill="#F14336"/>
</g>
<rect x="1.125" y="1.35693" width="53" height="53" rx="26.5" stroke="#EBEBF4"/>
<defs>
<clipPath id="clip0_457_21354">
<rect width="24" height="24" fill="white" transform="translate(15.625 15.8569)"/>
</clipPath>
</defs>
</svg>
