<svg width="25" height="25" viewBox="0 0 25 25" fill="none" xmlns="http://www.w3.org/2000/svg">
<g clip-path="url(#clip0_457_21355)">
<path d="M5.94391 15.3606L5.1085 18.4793L2.05511 18.5438C1.14259 16.8513 0.625 14.9149 0.625 12.8571C0.625 10.8672 1.10894 8.99068 1.96675 7.33838H1.96741L4.68578 7.83675L5.87659 10.5388C5.62736 11.2654 5.49152 12.0454 5.49152 12.8571C5.49161 13.7379 5.65117 14.5819 5.94391 15.3606Z" fill="#FBBB00"/>
<path d="M24.4153 10.6152C24.5531 11.3411 24.625 12.0908 24.625 12.857C24.625 13.7161 24.5347 14.5541 24.3626 15.3625C23.7784 18.1133 22.252 20.5152 20.1375 22.215L20.1369 22.2144L16.713 22.0397L16.2284 19.0146C17.6314 18.1917 18.7279 16.904 19.3055 15.3625H12.8888V10.6152H19.3991H24.4153Z" fill="#518EF8"/>
<path d="M20.1368 22.2142L20.1375 22.2148C18.081 23.8678 15.4687 24.8568 12.6249 24.8568C8.05505 24.8568 4.08188 22.3025 2.05505 18.5436L5.94385 15.3604C6.95724 18.0649 9.56626 19.9902 12.6249 19.9902C13.9396 19.9902 15.1713 19.6348 16.2282 19.0144L20.1368 22.2142Z" fill="#28B446"/>
<path d="M20.2846 3.61956L16.3971 6.80218C15.3033 6.11846 14.0103 5.7235 12.625 5.7235C9.49713 5.7235 6.83931 7.73711 5.87669 10.5387L1.96745 7.33825H1.9668C3.96395 3.4877 7.98724 0.856934 12.625 0.856934C15.5367 0.856934 18.2064 1.89409 20.2846 3.61956Z" fill="#F14336"/>
</g>
<defs>
<clipPath id="clip0_457_21355">
<rect width="24" height="24" fill="white" transform="translate(0.625 0.856934)"/>
</clipPath>
</defs>
</svg>
