<svg width="55" height="55" viewBox="0 0 55 55" fill="none" xmlns="http://www.w3.org/2000/svg">
<rect x="0.625" y="1.35693" width="53" height="53" rx="26.5" fill="#F7F7FC"/>
<g clip-path="url(#clip0_457_14306)">
<path d="M39.125 26.4228C39.125 21.0531 33.742 16.6847 27.1249 16.6847C20.5087 16.6847 15.125 21.0531 15.125 26.4228C15.125 31.2366 19.3941 35.2681 25.1608 36.0305C25.5516 36.1147 26.0835 36.2881 26.2181 36.6221C26.3391 36.9255 26.2972 37.4008 26.2567 37.7072C26.2567 37.7072 26.1159 38.554 26.0856 38.7344C26.0333 39.0378 25.8445 39.9209 27.1249 39.3812C28.4058 38.8416 34.0358 35.312 36.5534 32.4142H36.5529C38.292 30.5072 39.125 28.5718 39.125 26.4228Z" fill="#00B900"/>
<path d="M24.6868 23.8281H23.845C23.716 23.8281 23.6111 23.9327 23.6111 24.0613V29.2902C23.6111 29.419 23.716 29.5234 23.845 29.5234H24.6868C24.8158 29.5234 24.9205 29.419 24.9205 29.2902V24.0613C24.9205 23.9327 24.8158 23.8281 24.6868 23.8281Z" fill="white"/>
<path d="M30.4804 23.8281H29.6387C29.5096 23.8281 29.4049 23.9327 29.4049 24.0613V27.1678L27.0088 23.9318C27.0033 23.9235 26.9971 23.9157 26.9907 23.9081L26.989 23.9067C26.9844 23.9015 26.9798 23.8969 26.975 23.8923C26.9736 23.8909 26.9723 23.8897 26.9706 23.8883C26.9667 23.8847 26.9626 23.8812 26.9582 23.878C26.9564 23.8761 26.9543 23.8748 26.9522 23.8732C26.9481 23.8704 26.9442 23.8674 26.94 23.8649C26.9377 23.8633 26.9354 23.8619 26.9329 23.8607C26.9288 23.8582 26.9246 23.8557 26.9205 23.8536C26.918 23.8525 26.9157 23.8511 26.9131 23.8502C26.9088 23.8481 26.9044 23.846 26.8998 23.8444C26.897 23.8435 26.8947 23.8426 26.8922 23.8416C26.8876 23.84 26.883 23.8384 26.8782 23.8373C26.8756 23.8364 26.8729 23.8359 26.8701 23.835C26.8655 23.8341 26.8611 23.8329 26.8568 23.832C26.8536 23.8315 26.8501 23.8311 26.8469 23.8308C26.8427 23.8299 26.8386 23.8297 26.8345 23.8292C26.8305 23.8288 26.8266 23.8288 26.8225 23.8285C26.8195 23.8285 26.8172 23.8281 26.8142 23.8281H25.9727C25.8437 23.8281 25.7388 23.9327 25.7388 24.0613V29.2902C25.7388 29.419 25.8437 29.5234 25.9727 29.5234H26.8142C26.9435 29.5234 27.0482 29.419 27.0482 29.2902V26.1846L29.4473 29.4247C29.4638 29.4482 29.4843 29.4673 29.5066 29.4825C29.5073 29.483 29.5082 29.4836 29.5089 29.4843C29.5138 29.4873 29.5186 29.4903 29.5234 29.4931C29.5257 29.4945 29.5278 29.4954 29.5301 29.4965C29.5335 29.4986 29.5374 29.5004 29.5411 29.502C29.545 29.5037 29.5485 29.5053 29.5526 29.5069C29.5549 29.5078 29.5572 29.5087 29.5595 29.5094C29.565 29.5115 29.5701 29.5131 29.5754 29.5147C29.5766 29.5147 29.5777 29.5152 29.5789 29.5154C29.5979 29.5204 29.618 29.5234 29.6387 29.5234H30.4804C30.6097 29.5234 30.7141 29.419 30.7141 29.2902V24.0613C30.7141 23.9327 30.6097 23.8281 30.4804 23.8281Z" fill="white"/>
<path d="M22.6579 28.214H20.3708V24.0616C20.3708 23.9325 20.2661 23.8278 20.1373 23.8278H19.2954C19.1663 23.8278 19.0616 23.9325 19.0616 24.0616V29.2895V29.2899C19.0616 29.3527 19.0867 29.4096 19.127 29.4514C19.1279 29.4526 19.1288 29.4537 19.1302 29.4549C19.1313 29.456 19.1325 29.457 19.1336 29.4581C19.1757 29.4986 19.2323 29.5234 19.2951 29.5234H19.2954H22.6579C22.7869 29.5234 22.8911 29.4185 22.8911 29.2895V28.4478C22.8911 28.3187 22.7869 28.214 22.6579 28.214Z" fill="white"/>
<path d="M35.1287 25.1372C35.2578 25.1372 35.362 25.0328 35.362 24.9035V24.0618C35.362 23.9327 35.2578 23.8278 35.1287 23.8278H31.7662H31.7657C31.7027 23.8278 31.6459 23.8531 31.6038 23.8939C31.6029 23.8948 31.6017 23.8955 31.601 23.8964C31.5996 23.8978 31.5985 23.8992 31.5973 23.9005C31.5573 23.9424 31.5325 23.999 31.5325 24.0616V29.2897C31.5325 29.3525 31.5575 29.4096 31.5978 29.4514C31.5987 29.4526 31.5999 29.454 31.601 29.4549C31.6019 29.456 31.6033 29.4572 31.6045 29.4581C31.6463 29.4984 31.7032 29.5234 31.7657 29.5234H31.7662H35.1287C35.2578 29.5234 35.362 29.4185 35.362 29.2897V28.4478C35.362 28.3189 35.2578 28.214 35.1287 28.214H32.8419V27.3302H35.1287C35.2578 27.3302 35.362 27.2256 35.362 27.0965V26.2548C35.362 26.1257 35.2578 26.0208 35.1287 26.0208H32.8419V25.1372H35.1287Z" fill="white"/>
</g>
<rect x="0.625" y="1.35693" width="53" height="53" rx="26.5" stroke="#EBEBF4"/>
<defs>
<clipPath id="clip0_457_14306">
<rect width="24" height="24" fill="white" transform="translate(15.125 15.8569)"/>
</clipPath>
</defs>
</svg>
