<svg width="25" height="24" viewBox="0 0 25 24" fill="none" xmlns="http://www.w3.org/2000/svg">
<path d="M24.125 10.4228C24.125 5.05315 18.742 0.684658 12.1249 0.684658C5.50866 0.684658 0.125 5.05315 0.125 10.4228C0.125 15.2366 4.39411 19.2681 10.1608 20.0305C10.5516 20.1147 11.0835 20.2881 11.2181 20.6221C11.3391 20.9255 11.2972 21.4008 11.2567 21.7072C11.2567 21.7072 11.1159 22.554 11.0856 22.7344C11.0333 23.0378 10.8445 23.9209 12.1249 23.3812C13.4058 22.8416 19.0358 19.312 21.5534 16.4142H21.5529C23.292 14.5072 24.125 12.5718 24.125 10.4228Z" fill="#00B900"/>
<path d="M9.68676 7.82807H8.84504C8.71598 7.82807 8.61108 7.93274 8.61108 8.06133V13.2902C8.61108 13.419 8.71598 13.5234 8.84504 13.5234H9.68676C9.81581 13.5234 9.92048 13.419 9.92048 13.2902V8.06133C9.92048 7.93274 9.81581 7.82807 9.68676 7.82807Z" fill="white"/>
<path d="M15.4804 7.82807H14.6387C14.5096 7.82807 14.4049 7.93274 14.4049 8.06133V11.1678L12.0088 7.93182C12.0033 7.92354 11.9971 7.91572 11.9907 7.90813L11.989 7.90674C11.9844 7.90145 11.9798 7.89685 11.975 7.89225C11.9736 7.89087 11.9723 7.88972 11.9706 7.88834C11.9667 7.88466 11.9626 7.88121 11.9582 7.87799C11.9564 7.87615 11.9543 7.87477 11.9522 7.87316C11.9481 7.8704 11.9442 7.86741 11.94 7.86488C11.9377 7.86327 11.9354 7.86189 11.9329 7.86074C11.9288 7.85821 11.9246 7.85568 11.9205 7.85361C11.918 7.85246 11.9157 7.85108 11.9131 7.85016C11.9088 7.84808 11.9044 7.84601 11.8998 7.8444C11.897 7.84348 11.8947 7.84256 11.8922 7.84164C11.8876 7.84003 11.883 7.83842 11.8782 7.83727C11.8756 7.83635 11.8729 7.83589 11.8701 7.83497C11.8655 7.83405 11.8611 7.8329 11.8568 7.83198C11.8536 7.83152 11.8501 7.83106 11.8469 7.83083C11.8427 7.82991 11.8386 7.82968 11.8345 7.82922C11.8305 7.82876 11.8266 7.82876 11.8225 7.82853C11.8195 7.82853 11.8172 7.82807 11.8142 7.82807H10.9727C10.8437 7.82807 10.7388 7.93274 10.7388 8.06133V13.2902C10.7388 13.419 10.8437 13.5234 10.9727 13.5234H11.8142C11.9435 13.5234 12.0482 13.419 12.0482 13.2902V10.1846L14.4473 13.4247C14.4638 13.4482 14.4843 13.4673 14.5066 13.4825C14.5073 13.483 14.5082 13.4836 14.5089 13.4843C14.5138 13.4873 14.5186 13.4903 14.5234 13.4931C14.5257 13.4945 14.5278 13.4954 14.5301 13.4965C14.5335 13.4986 14.5374 13.5004 14.5411 13.502C14.545 13.5037 14.5485 13.5053 14.5526 13.5069C14.5549 13.5078 14.5572 13.5087 14.5595 13.5094C14.565 13.5115 14.5701 13.5131 14.5754 13.5147C14.5766 13.5147 14.5777 13.5152 14.5789 13.5154C14.5979 13.5204 14.618 13.5234 14.6387 13.5234H15.4804C15.6097 13.5234 15.7141 13.419 15.7141 13.2902V8.06133C15.7141 7.93274 15.6097 7.82807 15.4804 7.82807Z" fill="white"/>
<path d="M7.65788 12.214H5.37081V8.06156C5.37081 7.93251 5.26614 7.82784 5.13732 7.82784H4.29537C4.16631 7.82784 4.06165 7.93251 4.06165 8.06156V13.2895V13.2899C4.06165 13.3527 4.08672 13.4096 4.12698 13.4514C4.1279 13.4526 4.12882 13.4537 4.1302 13.4549C4.13135 13.456 4.1325 13.457 4.13365 13.4581C4.17575 13.4986 4.23234 13.5234 4.29514 13.5234H4.29537H7.65788C7.78694 13.5234 7.89115 13.4185 7.89115 13.2895V12.4478C7.89115 12.3187 7.78694 12.214 7.65788 12.214Z" fill="white"/>
<path d="M20.1287 9.13724C20.2578 9.13724 20.362 9.0328 20.362 8.90351V8.06179C20.362 7.93274 20.2578 7.82784 20.1287 7.82784H16.7662H16.7657C16.7027 7.82784 16.6459 7.85315 16.6038 7.89386C16.6029 7.89478 16.6017 7.89547 16.601 7.89639C16.5996 7.89777 16.5985 7.89915 16.5973 7.90053C16.5573 7.9424 16.5325 7.99899 16.5325 8.06156V13.2897C16.5325 13.3525 16.5575 13.4096 16.5978 13.4514C16.5987 13.4526 16.5999 13.454 16.601 13.4549C16.6019 13.456 16.6033 13.4572 16.6045 13.4581C16.6463 13.4984 16.7032 13.5234 16.7657 13.5234H16.7662H20.1287C20.2578 13.5234 20.362 13.4185 20.362 13.2897V12.4478C20.362 12.3189 20.2578 12.214 20.1287 12.214H17.8419V11.3302H20.1287C20.2578 11.3302 20.362 11.2256 20.362 11.0965V10.2548C20.362 10.1257 20.2578 10.0208 20.1287 10.0208H17.8419V9.13724H20.1287Z" fill="white"/>
</svg>
