<svg width="135" height="41" viewBox="0 0 135 41" fill="none" xmlns="http://www.w3.org/2000/svg">
<g clip-path="url(#clip0_11_1008)">
<path d="M130.197 40.6606H4.729C3.47499 40.6577 2.27324 40.158 1.38689 39.2709C0.500547 38.3838 0.00184854 37.1817 0 35.9276L0 5.38664C0.00185325 4.13328 0.500776 2.93183 1.38732 2.04584C2.27386 1.15986 3.47564 0.661702 4.729 0.660645L130.197 0.660645C132.803 0.660645 135 2.78064 135 5.38664V35.9276C135 38.5326 132.803 40.6606 130.197 40.6606Z" fill="#A6A6A6"/>
<path d="M134.032 35.9287C134.032 36.432 133.933 36.9303 133.74 37.3953C133.548 37.8602 133.265 38.2826 132.909 38.6383C132.553 38.994 132.13 39.276 131.665 39.4683C131.2 39.6605 130.701 39.7592 130.198 39.7587H4.72914C3.7122 39.7597 2.73649 39.3568 2.01656 38.6386C1.29664 37.9204 0.891462 36.9456 0.890137 35.9287V5.38566C0.891461 4.36827 1.29648 3.39298 2.01626 2.67395C2.73604 1.95492 3.71174 1.55092 4.72914 1.55066H130.197C130.701 1.55066 131.199 1.64986 131.665 1.8426C132.13 2.03534 132.553 2.31784 132.909 2.67397C133.265 3.03009 133.547 3.45287 133.74 3.91814C133.932 4.38342 134.031 4.88209 134.031 5.38566L134.032 35.9287Z" fill="black"/>
<path d="M30.1281 20.4446C30.0991 17.2216 32.7671 15.6536 32.8891 15.5806C31.3781 13.3776 29.0361 13.0766 28.2131 13.0526C26.2461 12.8456 24.3381 14.2296 23.3361 14.2296C22.3141 14.2296 20.7711 13.0726 19.1081 13.1066C16.9681 13.1396 14.9661 14.3786 13.8681 16.3026C11.6021 20.2256 13.2921 25.9906 15.4631 29.1616C16.5491 30.7146 17.8181 32.4486 19.4791 32.3876C21.1041 32.3206 21.7111 31.3516 23.6721 31.3516C25.6151 31.3516 26.1851 32.3876 27.8791 32.3486C29.6231 32.3206 30.7211 30.7886 31.7691 29.2216C33.0241 27.4416 33.5281 25.6886 33.5481 25.5986C33.5071 25.5846 30.1611 24.3076 30.1281 20.4446ZM26.9281 10.9666C27.8021 9.87364 28.4001 8.38664 28.2341 6.87764C26.9691 6.93364 25.3871 7.75264 24.4761 8.82164C23.6701 9.76364 22.9501 11.3076 23.1361 12.7596C24.5571 12.8656 26.0161 12.0426 26.9281 10.9666ZM53.6451 32.1646H51.3741L50.1301 28.2556H45.8061L44.6211 32.1646H42.4101L46.6941 18.8566H49.3401L53.6451 32.1646ZM49.7551 26.6156L48.6301 23.1406C48.5111 22.7856 48.2881 21.9496 47.9591 20.6336H47.9191C47.7196 21.4721 47.5089 22.3078 47.2871 23.1406L46.1821 26.6156H49.7551ZM64.6621 27.2486C64.6621 28.8806 64.2211 30.1706 63.3391 31.1176C62.5491 31.9606 61.5681 32.3816 60.3971 32.3816C59.1331 32.3816 58.2251 31.9276 57.6721 31.0196H57.6321V36.0746H55.5001V25.7276C55.5001 24.7016 55.4731 23.6486 55.4211 22.5686H57.2961L57.4151 24.0896H57.4551C58.1661 22.9436 59.2451 22.3716 60.6931 22.3716C61.8251 22.3716 62.7701 22.8186 63.5261 23.7136C64.2841 24.6096 64.6621 25.7876 64.6621 27.2486ZM62.4901 27.3266C62.4901 26.3926 62.2801 25.6226 61.8581 25.0166C61.3971 24.3846 60.7781 24.0686 60.0021 24.0686C59.4761 24.0686 58.9981 24.2446 58.5711 24.5916C58.1431 24.9416 57.8631 25.3986 57.7321 25.9646C57.6661 26.2286 57.6331 26.4446 57.6331 26.6146V28.2146C57.6331 28.9126 57.8471 29.5016 58.2751 29.9826C58.7031 30.4636 59.2591 30.7036 59.9431 30.7036C60.7461 30.7036 61.3711 30.3936 61.8181 29.7756C62.2661 29.1566 62.4901 28.3406 62.4901 27.3266ZM75.6991 27.2486C75.6991 28.8806 75.2581 30.1706 74.3751 31.1176C73.5861 31.9606 72.6051 32.3816 71.4341 32.3816C70.1701 32.3816 69.2621 31.9276 68.7101 31.0196H68.6701V36.0746H66.5381V25.7276C66.5381 24.7016 66.5111 23.6486 66.4591 22.5686H68.3341L68.4531 24.0896H68.4931C69.2031 22.9436 70.2821 22.3716 71.7311 22.3716C72.8621 22.3716 73.8071 22.8186 74.5651 23.7136C75.3201 24.6096 75.6991 25.7876 75.6991 27.2486ZM73.5271 27.3266C73.5271 26.3926 73.3161 25.6226 72.8941 25.0166C72.4331 24.3846 71.8161 24.0686 71.0391 24.0686C70.515 24.0685 70.0077 24.2537 69.6071 24.5916C69.1791 24.9416 68.9001 25.3986 68.7691 25.9646C68.7041 26.2286 68.6701 26.4446 68.6701 26.6146V28.2146C68.6701 28.9126 68.8841 29.5016 69.3101 29.9826C69.7381 30.4626 70.2941 30.7036 70.9801 30.7036C71.7831 30.7036 72.4081 30.3936 72.8551 29.7756C73.3031 29.1566 73.5271 28.3406 73.5271 27.3266ZM88.0391 28.4326C88.0391 29.5646 87.6461 30.4856 86.8571 31.1966C85.9901 31.9736 84.7831 32.3616 83.2321 32.3616C81.8001 32.3616 80.6521 32.0856 79.7831 31.5326L80.2771 29.7556C81.2131 30.3216 82.2401 30.6056 83.3591 30.6056C84.1621 30.6056 84.7871 30.4236 85.2361 30.0616C85.6831 29.6996 85.9061 29.2136 85.9061 28.6076C85.9061 28.0676 85.7221 27.6126 85.3531 27.2436C84.9861 26.8746 84.3731 26.5316 83.5171 26.2146C81.1871 25.3456 80.0231 24.0726 80.0231 22.3986C80.0231 21.3046 80.4311 20.4076 81.2481 19.7096C82.0621 19.0106 83.1481 18.6616 84.5061 18.6616C85.7171 18.6616 86.7231 18.8726 87.5261 19.2936L86.9931 21.0316C86.2431 20.6236 85.3951 20.4196 84.4461 20.4196C83.6961 20.4196 83.1101 20.6046 82.6901 20.9726C82.5198 21.1233 82.384 21.309 82.292 21.5169C82.2 21.7249 82.154 21.9503 82.1571 22.1776C82.1571 22.7036 82.3601 23.1386 82.7681 23.4806C83.1231 23.7966 83.7681 24.1386 84.7041 24.5076C85.8491 24.9686 86.6901 25.5076 87.2311 26.1256C87.7701 26.7416 88.0391 27.5126 88.0391 28.4326ZM95.0881 24.1686H92.7381V28.8276C92.7381 30.0126 93.1521 30.6046 93.9821 30.6046C94.3631 30.6046 94.6791 30.5716 94.9291 30.5056L94.9881 32.1246C94.5681 32.2816 94.0151 32.3606 93.3301 32.3606C92.4881 32.3606 91.8301 32.1036 91.3551 31.5906C90.8821 31.0766 90.6441 30.2146 90.6441 29.0036V24.1666H89.2441V22.5666H90.6441V20.8096L92.7381 20.1776V22.5666H95.0881V24.1686ZM105.691 27.2876C105.691 28.7626 105.269 29.9736 104.427 30.9206C103.544 31.8956 102.372 32.3816 100.911 32.3816C99.5031 32.3816 98.3821 31.9146 97.5461 30.9806C96.7101 30.0466 96.2921 28.8676 96.2921 27.4466C96.2921 25.9596 96.7221 24.7416 97.5851 23.7946C98.4461 22.8466 99.6081 22.3726 101.069 22.3726C102.477 22.3726 103.61 22.8396 104.465 23.7746C105.283 24.6816 105.691 25.8526 105.691 27.2876ZM103.479 27.3566C103.479 26.4716 103.29 25.7126 102.907 25.0796C102.46 24.3136 101.821 23.9316 100.993 23.9316C100.136 23.9316 99.4851 24.3146 99.0381 25.0796C98.6551 25.7136 98.4661 26.4846 98.4661 27.3966C98.4661 28.2816 98.6551 29.0406 99.0381 29.6726C99.4991 30.4386 100.143 30.8206 100.974 30.8206C101.788 30.8206 102.427 30.4306 102.888 29.6526C103.281 29.0076 103.479 28.2406 103.479 27.3566ZM112.621 24.4436C112.399 24.4036 112.174 24.3838 111.949 24.3846C111.199 24.3846 110.619 24.6676 110.211 25.2346C109.856 25.7346 109.678 26.3666 109.678 27.1296V32.1646H107.547L107.567 25.5906C107.567 24.4846 107.54 23.4776 107.487 22.5696H109.344L109.422 24.4056H109.481C109.706 23.7746 110.061 23.2666 110.547 22.8856C110.992 22.5527 111.532 22.3724 112.088 22.3716C112.285 22.3716 112.463 22.3856 112.621 22.4106V24.4436ZM122.156 26.9126C122.161 27.2367 122.135 27.5606 122.078 27.8796H115.682C115.707 28.8276 116.016 29.5526 116.61 30.0526C117.149 30.4996 117.846 30.7236 118.702 30.7236C119.649 30.7236 120.513 30.5726 121.29 30.2696L121.624 31.7496C120.716 32.1456 119.644 32.3426 118.407 32.3426C116.919 32.3426 115.751 31.9046 114.901 31.0296C114.053 30.1546 113.628 28.9796 113.628 27.5056C113.628 26.0586 114.023 24.8536 114.814 23.8926C115.642 22.8666 116.761 22.3536 118.169 22.3536C119.552 22.3536 120.599 22.8666 121.31 23.8926C121.873 24.7076 122.156 25.7156 122.156 26.9126ZM120.123 26.3596C120.137 25.7276 119.998 25.1816 119.709 24.7206C119.34 24.1276 118.773 23.8316 118.01 23.8316C117.313 23.8316 116.746 24.1206 116.313 24.7006C115.958 25.1616 115.747 25.7146 115.682 26.3586L120.123 26.3596ZM49.0501 10.6696C49.0501 11.8466 48.6971 12.7326 47.9921 13.3276C47.3391 13.8766 46.4111 14.1516 45.2091 14.1516C44.6131 14.1516 44.1031 14.1256 43.6761 14.0736V7.64264C44.2331 7.55264 44.8331 7.50664 45.4811 7.50664C46.6261 7.50664 47.4891 7.75564 48.0711 8.25364C48.7231 8.81664 49.0501 9.62164 49.0501 10.6696ZM47.9451 10.6986C47.9451 9.93564 47.7431 9.35064 47.3391 8.94264C46.9351 8.53564 46.3451 8.33164 45.5681 8.33164C45.2381 8.33164 44.9571 8.35364 44.7241 8.39964V13.2886C44.8531 13.3086 45.0891 13.3176 45.4321 13.3176C46.2341 13.3176 46.8531 13.0946 47.2891 12.6486C47.7251 12.2026 47.9451 11.5526 47.9451 10.6986ZM54.9091 11.6976C54.9091 12.4226 54.7021 13.0166 54.2881 13.4826C53.8541 13.9616 53.2791 14.2006 52.5611 14.2006C51.8691 14.2006 51.3181 13.9716 50.9071 13.5116C50.4971 13.0526 50.2921 12.4736 50.2921 11.7756C50.2921 11.0456 50.5031 10.4466 50.9271 9.98164C51.3511 9.51664 51.9211 9.28364 52.6391 9.28364C53.3311 9.28364 53.8871 9.51264 54.3081 9.97164C54.7081 10.4176 54.9091 10.9936 54.9091 11.6976ZM53.8221 11.7316C53.8221 11.2966 53.7281 10.9236 53.5411 10.6126C53.3211 10.2366 53.0081 10.0486 52.6011 10.0486C52.1801 10.0486 51.8601 10.2366 51.6401 10.6126C51.4521 10.9236 51.3591 11.3026 51.3591 11.7506C51.3591 12.1856 51.4531 12.5586 51.6401 12.8696C51.8671 13.2456 52.1831 13.4336 52.5911 13.4336C52.9911 13.4336 53.3051 13.2426 53.5311 12.8596C53.7251 12.5426 53.8221 12.1666 53.8221 11.7316ZM62.7651 9.37964L61.2901 14.0936H60.3301L59.7191 12.0466C59.5668 11.5458 59.4403 11.0374 59.3401 10.5236H59.3211C59.2307 11.0396 59.104 11.5485 58.9421 12.0466L58.2931 14.0936H57.3221L55.9351 9.37964H57.0121L57.5451 11.6206C57.6741 12.1506 57.7801 12.6556 57.8651 13.1336H57.8841C57.9621 12.7396 58.0911 12.2376 58.2731 11.6306L58.9421 9.38064H59.7961L60.4371 11.5826C60.5921 12.1196 60.7181 12.6366 60.8151 13.1346H60.8441C60.9151 12.6496 61.0221 12.1326 61.1641 11.5826L61.7361 9.38064H62.7651V9.37964ZM68.1981 14.0936H67.1501V11.3936C67.1501 10.5616 66.8341 10.1456 66.2001 10.1456C66.0561 10.1414 65.9131 10.1701 65.7819 10.2296C65.6507 10.289 65.5348 10.3776 65.4431 10.4886C65.2511 10.7137 65.1477 11.0009 65.1521 11.2966V14.0926H64.1041V10.7266C64.1041 10.3126 64.0911 9.86364 64.0661 9.37764H64.9871L65.0361 10.1146H65.0651C65.1871 9.88564 65.3691 9.69664 65.6081 9.54564C65.8921 9.36964 66.2101 9.28064 66.5581 9.28064C66.9981 9.28064 67.3641 9.42264 67.6551 9.70764C68.0171 10.0566 68.1981 10.5776 68.1981 11.2696V14.0936ZM71.0881 14.0936H70.0411V7.21664H71.0881V14.0936ZM77.2581 11.6976C77.2581 12.4226 77.0511 13.0166 76.6371 13.4826C76.2031 13.9616 75.6271 14.2006 74.9101 14.2006C74.2171 14.2006 73.6661 13.9716 73.2561 13.5116C72.8461 13.0526 72.6411 12.4736 72.6411 11.7756C72.6411 11.0456 72.8521 10.4466 73.2761 9.98164C73.7001 9.51664 74.2701 9.28364 74.9871 9.28364C75.6801 9.28364 76.2351 9.51264 76.6571 9.97164C77.0571 10.4176 77.2581 10.9936 77.2581 11.6976ZM76.1701 11.7316C76.1701 11.2966 76.0761 10.9236 75.8891 10.6126C75.6701 10.2366 75.3561 10.0486 74.9501 10.0486C74.5281 10.0486 74.2081 10.2366 73.9891 10.6126C73.8011 10.9236 73.7081 11.3026 73.7081 11.7506C73.7081 12.1856 73.8021 12.5586 73.9891 12.8696C74.2161 13.2456 74.5321 13.4336 74.9401 13.4336C75.3401 13.4336 75.6531 13.2426 75.8791 12.8596C76.0741 12.5426 76.1701 12.1666 76.1701 11.7316ZM82.3301 14.0936H81.3891L81.3111 13.5506H81.2821C80.9601 13.9836 80.5011 14.2006 79.9051 14.2006C79.4601 14.2006 79.1001 14.0576 78.8291 13.7736C78.7074 13.6458 78.6121 13.4952 78.5487 13.3305C78.4854 13.1657 78.4553 12.9901 78.4601 12.8136C78.4601 12.2376 78.7001 11.7986 79.1831 11.4946C79.6651 11.1906 80.3431 11.0416 81.2161 11.0486V10.9606C81.2161 10.3396 80.8901 10.0296 80.2371 10.0296C79.7721 10.0296 79.3621 10.1466 79.0081 10.3786L78.7951 9.69064C79.2331 9.41964 79.7741 9.28364 80.4121 9.28364C81.6441 9.28364 82.2621 9.93364 82.2621 11.2336V12.9696C82.2621 13.4406 82.2851 13.8156 82.3301 14.0936ZM81.2421 12.4736V11.7466C80.0861 11.7266 79.5081 12.0436 79.5081 12.6966C79.5081 12.9426 79.5741 13.1266 79.7091 13.2496C79.8498 13.3744 80.0331 13.4403 80.2211 13.4336C80.4511 13.4336 80.6661 13.3606 80.8621 13.2156C80.981 13.1322 81.0778 13.021 81.144 12.8917C81.2102 12.7624 81.2439 12.6189 81.2421 12.4736ZM88.2851 14.0936H87.3551L87.3061 13.3366H87.2771C86.9801 13.9126 86.4741 14.2006 85.7631 14.2006C85.1951 14.2006 84.7221 13.9776 84.3471 13.5316C83.9721 13.0856 83.7851 12.5066 83.7851 11.7956C83.7851 11.0326 83.9881 10.4146 84.3961 9.94264C84.7911 9.50264 85.2751 9.28264 85.8511 9.28264C86.4841 9.28264 86.9271 9.49564 87.1791 9.92264H87.1991V7.21664H88.2481V12.8236C88.2481 13.2826 88.2601 13.7056 88.2851 14.0936ZM87.1991 12.1056V11.3196C87.2089 11.1384 87.1773 10.9572 87.1066 10.79C87.0359 10.6228 86.928 10.4739 86.7911 10.3546C86.5978 10.1843 86.3477 10.0926 86.0901 10.0976C85.6991 10.0976 85.3931 10.2526 85.1681 10.5636C84.9451 10.8746 84.8321 11.2716 84.8321 11.7566C84.8321 12.2226 84.9391 12.6006 85.1541 12.8916C85.3811 13.2016 85.6871 13.3566 86.0701 13.3566C86.4141 13.3566 86.6891 13.2276 86.8981 12.9686C87.1001 12.7296 87.1991 12.4416 87.1991 12.1056ZM97.2481 11.6976C97.2481 12.4226 97.0411 13.0166 96.6271 13.4826C96.1931 13.9616 95.6191 14.2006 94.9001 14.2006C94.2091 14.2006 93.6581 13.9716 93.2461 13.5116C92.8361 13.0526 92.6311 12.4736 92.6311 11.7756C92.6311 11.0456 92.8421 10.4466 93.2661 9.98164C93.6901 9.51664 94.2601 9.28364 94.9791 9.28364C95.6701 9.28364 96.2271 9.51264 96.6471 9.97164C97.0471 10.4176 97.2481 10.9936 97.2481 11.6976ZM96.1621 11.7316C96.1621 11.2966 96.0681 10.9236 95.8811 10.6126C95.6601 10.2366 95.3481 10.0486 94.9401 10.0486C94.5201 10.0486 94.2001 10.2366 93.9791 10.6126C93.7911 10.9236 93.6981 11.3026 93.6981 11.7506C93.6981 12.1856 93.7921 12.5586 93.9791 12.8696C94.2061 13.2456 94.5221 13.4336 94.9301 13.4336C95.3301 13.4336 95.6451 13.2426 95.8711 12.8596C96.0641 12.5426 96.1621 12.1666 96.1621 11.7316ZM102.883 14.0936H101.836V11.3936C101.836 10.5616 101.52 10.1456 100.885 10.1456C100.574 10.1456 100.323 10.2596 100.129 10.4886C99.9351 10.7176 99.8381 10.9876 99.8381 11.2966V14.0926H98.7891V10.7266C98.7891 10.3126 98.7771 9.86364 98.7521 9.37764H99.6721L99.7211 10.1146H99.7501C99.8784 9.8809 100.066 9.68475 100.293 9.54564C100.578 9.36964 100.895 9.28064 101.244 9.28064C101.683 9.28064 102.049 9.42264 102.34 9.70764C102.703 10.0566 102.883 10.5776 102.883 11.2696V14.0936ZM109.936 10.1646H108.782V12.4546C108.782 13.0366 108.987 13.3276 109.393 13.3276C109.581 13.3276 109.737 13.3116 109.86 13.2786L109.887 14.0736C109.68 14.1516 109.408 14.1906 109.073 14.1906C108.659 14.1906 108.337 14.0646 108.104 13.8126C107.87 13.5606 107.754 13.1366 107.754 12.5416V10.1646H107.065V9.37964H107.754V8.51564L108.781 8.20564V9.37864H109.935L109.936 10.1646ZM115.484 14.0936H114.435V11.4136C114.435 10.5686 114.119 10.1456 113.486 10.1456C113 10.1456 112.668 10.3906 112.486 10.8806C112.452 11.0033 112.435 11.1303 112.437 11.2576V14.0926H111.39V7.21664H112.437V10.0576H112.457C112.787 9.54064 113.26 9.28264 113.873 9.28264C114.307 9.28264 114.666 9.42464 114.951 9.70964C115.306 10.0646 115.484 10.5926 115.484 11.2906V14.0936ZM121.207 11.5136C121.207 11.7016 121.193 11.8596 121.168 11.9886H118.025C118.039 12.4546 118.189 12.8096 118.48 13.0556C118.746 13.2756 119.089 13.3856 119.509 13.3856C119.974 13.3856 120.398 13.3116 120.78 13.1626L120.944 13.8906C120.497 14.0846 119.971 14.1816 119.362 14.1816C118.632 14.1816 118.057 13.9666 117.641 13.5366C117.223 13.1066 117.016 12.5296 117.016 11.8056C117.016 11.0946 117.209 10.5026 117.598 10.0306C118.004 9.52664 118.553 9.27464 119.246 9.27464C119.924 9.27464 120.439 9.52664 120.787 10.0306C121.068 10.4306 121.207 10.9256 121.207 11.5136ZM120.207 11.2426C120.222 10.96 120.151 10.6795 120.004 10.4376C119.822 10.1466 119.545 10.0006 119.17 10.0006C119.007 9.99786 118.845 10.0354 118.7 10.1098C118.554 10.1843 118.429 10.2935 118.336 10.4276C118.158 10.6649 118.051 10.9472 118.025 11.2426H120.207Z" fill="white"/>
</g>
<defs>
<clipPath id="clip0_11_1008">
<rect width="135" height="40" fill="white" transform="translate(0 0.660645)"/>
</clipPath>
</defs>
</svg>
