<svg width="52" height="51" viewBox="0 0 52 51" fill="none" xmlns="http://www.w3.org/2000/svg">
<ellipse opacity="0.5" cx="26.2303" cy="25.6606" rx="25.6043" ry="25" fill="white"/>
<path d="M27.0299 22.3261C25.4692 22.3261 24.1955 23.5998 24.1955 25.1606C24.1955 26.7214 25.4692 27.9952 27.0299 27.9952C28.5907 27.9952 29.8644 26.7214 29.8644 25.1606C29.8644 23.5998 28.5907 22.3261 27.0299 22.3261ZM35.5313 25.1606C35.5313 23.9869 35.5419 22.8237 35.476 21.652C35.4101 20.2911 35.0996 19.0833 34.1045 18.0881C33.1072 17.0908 31.9015 16.7825 30.5406 16.7166C29.3669 16.6506 28.2037 16.6613 27.0321 16.6613C25.8583 16.6613 24.6952 16.6506 23.5235 16.7166C22.1626 16.7825 20.9548 17.0929 19.9597 18.0881C18.9624 19.0854 18.6541 20.2911 18.5881 21.652C18.5222 22.8258 18.5329 23.989 18.5329 25.1606C18.5329 26.3323 18.5222 27.4976 18.5881 28.6693C18.6541 30.0302 18.9645 31.238 19.9597 32.2332C20.957 33.2305 22.1626 33.5388 23.5235 33.6047C24.6973 33.6706 25.8604 33.66 27.0321 33.66C28.2058 33.66 29.369 33.6706 30.5406 33.6047C31.9015 33.5388 33.1093 33.2283 34.1045 32.2332C35.1017 31.2359 35.4101 30.0302 35.476 28.6693C35.544 27.4976 35.5313 26.3344 35.5313 25.1606ZM27.0299 29.522C24.6165 29.522 22.6687 27.5742 22.6687 25.1606C22.6687 22.7471 24.6165 20.7993 27.0299 20.7993C29.4434 20.7993 31.3912 22.7471 31.3912 25.1606C31.3912 27.5742 29.4434 29.522 27.0299 29.522ZM31.5698 21.6393C31.0063 21.6393 30.5513 21.1842 30.5513 20.6207C30.5513 20.0572 31.0063 19.6021 31.5698 19.6021C32.1333 19.6021 32.5883 20.0572 32.5883 20.6207C32.5885 20.7545 32.5623 20.887 32.5112 21.0107C32.46 21.1343 32.385 21.2467 32.2904 21.3413C32.1958 21.4359 32.0834 21.5109 31.9598 21.5621C31.8361 21.6132 31.7036 21.6394 31.5698 21.6393Z" fill="white"/>
</svg>
