<svg width="76" height="54" viewBox="0 0 76 54" fill="none" xmlns="http://www.w3.org/2000/svg">
<g clip-path="url(#clip0_13_1374)">
<path d="M41.3314 43.0723V53.9406H38.7881L33.9708 48.1501V53.9406H30.9468V43.0723H33.4886L38.3059 48.8628V43.0723H41.3314Z" fill="white"/>
<path d="M70.9804 45.5254L67.9718 53.9395H65.1034L63.5131 49.3602L61.8604 53.9395H58.9925L55.9839 45.5254H58.788L60.5179 50.6167L62.3132 45.5254H64.8386L66.584 50.6639L68.3768 45.5254H70.9804Z" fill="white"/>
<path d="M53.9482 49.5798C53.9482 50.4343 53.6937 51.2697 53.217 51.9802C52.7403 52.6907 52.0627 53.2445 51.2699 53.5715C50.4771 53.8985 49.6048 53.984 48.7632 53.8173C47.9216 53.6506 47.1485 53.2391 46.5417 52.6349C45.935 52.0307 45.5218 51.2608 45.3544 50.4227C45.187 49.5846 45.2729 48.7159 45.6013 47.9264C45.9296 47.1369 46.4857 46.4622 47.1992 45.9874C47.9127 45.5127 48.7515 45.2593 49.6096 45.2593C50.7602 45.2593 51.8638 45.7145 52.6774 46.5247C53.4911 47.335 53.9482 48.4339 53.9482 49.5798Z" fill="#E94833"/>
<path d="M55.1682 9.00858C52.1014 9.96396 49.393 11.8137 47.3932 14.3185C45.3934 16.8233 44.1942 19.8679 43.9508 23.0588H43.9009V28.3462H41.586V28.3025C39.1635 28.1199 36.8327 27.3017 34.8307 25.9313C32.8286 24.5608 31.2266 22.6869 30.1876 20.5C29.1486 18.3131 28.7095 15.8913 28.9151 13.4806C29.1207 11.07 29.9635 8.75651 31.358 6.77542C32.7525 4.79433 34.6488 3.21626 36.8543 2.20164C39.0598 1.18701 41.4957 0.772015 43.9144 0.998827C46.3331 1.22564 48.6484 2.08617 50.6249 3.49295C52.6014 4.89973 54.1687 6.80259 55.1673 9.00809" fill="#093869"/>
<path d="M56.3905 13.6104V28.3479H43.9014V23.0585H43.9512C44.1947 19.8677 45.3938 16.823 47.3936 14.3182C49.3934 11.8134 52.1019 9.96368 55.1687 9.0083C55.829 10.4613 56.2282 12.0185 56.3481 13.6089L56.3905 13.6104Z" fill="#A62B4C"/>
<path d="M75.9994 24.2637C75.9996 28.2933 74.4708 32.1742 71.7193 35.1288C68.9679 38.0835 65.1969 39.8938 61.162 40.197V40.2467H51.0206C51.0206 40.2467 44.0041 39.7625 44.0041 46.0699L43.9009 37.9573V28.3463H56.39V13.6084H56.3466C56.2269 12.0179 55.8277 10.4607 55.1672 9.00773C57.5699 8.26118 60.1152 8.08777 62.5976 8.50148C65.08 8.9152 67.4299 9.90444 69.4575 11.3894C71.4852 12.8743 73.1338 14.8132 74.2702 17.0496C75.4066 19.286 75.9989 21.7572 75.9994 24.2637Z" fill="#E94833"/>
<path d="M3.35168 32.6366H0V30.1992H9.77428V32.6366H6.43806V41.0646H3.35168V32.6366Z" fill="white"/>
<path d="M22.0892 30.1992V41.0646H19.0023V36.8265H14.7929V41.0646H11.7065V30.1992H14.7929V34.2824H19.0023V30.1992H22.0892Z" fill="white"/>
<path d="M32.363 38.955H27.7491L26.8914 41.0646H23.7422L28.559 30.1982H31.601L36.4318 41.0646H33.2202L32.363 38.955ZM31.4594 36.688L30.0561 33.2117L28.6533 36.688H31.4594Z" fill="white"/>
<path d="M41.1699 30.1992H38.0835V41.0661H41.1699V30.1992Z" fill="white"/>
</g>
<defs>
<clipPath id="clip0_13_1374">
<rect width="76" height="53" fill="white" transform="translate(0 0.938965)"/>
</clipPath>
</defs>
</svg>
