<svg width="52" height="51" viewBox="0 0 52 51" fill="none" xmlns="http://www.w3.org/2000/svg">
<ellipse opacity="0.5" cx="25.6043" cy="25.6606" rx="25.6043" ry="25" fill="white"/>
<path fill-rule="evenodd" clip-rule="evenodd" d="M25.7445 22.6812L25.7076 22.1188C25.597 20.6615 26.5674 19.3303 28.1029 18.814C28.6679 18.6304 29.626 18.6074 30.2525 18.7681C30.4981 18.837 30.9649 19.0664 31.2965 19.273L31.8984 19.6517L32.5617 19.4566C32.9303 19.3533 33.4216 19.1812 33.6427 19.0664C33.8515 18.9632 34.0357 18.9057 34.0357 18.9402C34.0357 19.1353 33.5813 19.8008 33.2005 20.168C32.6846 20.6844 32.832 20.7303 33.8761 20.386C34.5026 20.191 34.5148 20.191 34.392 20.409C34.3183 20.5238 33.9375 20.9254 33.5321 21.2926C32.8442 21.9238 32.8074 21.9926 32.8074 22.5205C32.8074 23.3352 32.3898 25.0336 31.9721 25.9631C31.1983 27.7073 29.54 29.5089 27.8818 30.4154C25.5479 31.6892 22.4402 32.0105 19.8238 31.2646C18.9517 31.0121 17.4531 30.3695 17.4531 30.2548C17.4531 30.2204 17.9076 30.1744 18.4604 30.163C19.615 30.14 20.7696 29.8417 21.7523 29.3138L22.4157 28.9466L21.654 28.7056C20.5731 28.3614 19.6027 27.5696 19.3571 26.8237C19.2833 26.5827 19.3079 26.5712 19.9958 26.5712L20.7082 26.5598L20.1063 26.2958C19.3939 25.9631 18.7429 25.4007 18.4235 24.827C18.1901 24.4139 17.8954 23.3696 17.9813 23.2893C18.0059 23.2549 18.2638 23.3237 18.5587 23.4155C19.4062 23.7024 19.5167 23.6335 19.0254 23.1516C18.1041 22.2795 17.8216 20.9828 18.2638 19.7549L18.4727 19.2041L19.2833 19.95C20.9417 21.4533 22.8947 22.3484 25.1303 22.6123L25.7445 22.6812Z" fill="white"/>
</svg>
