<svg width="52" height="51" viewBox="0 0 52 51" fill="none" xmlns="http://www.w3.org/2000/svg">
<ellipse opacity="0.5" cx="26.0213" cy="25.6606" rx="25.6043" ry="25" fill="white"/>
<path d="M35.0712 22.3901C34.9744 22.0583 34.7853 21.7558 34.5228 21.5126C34.2602 21.2693 33.9333 21.0939 33.5745 21.0037C32.2444 20.6661 26.9229 20.6607 26.9229 20.6607C26.9229 20.6607 21.6022 20.6552 20.2712 20.9778C19.9127 21.0721 19.5865 21.25 19.3238 21.4945C19.0611 21.7389 18.8708 22.0416 18.7712 22.3736C18.4204 23.603 18.417 26.1528 18.417 26.1528C18.417 26.1528 18.4136 28.7152 18.7618 29.932C18.9572 30.6048 19.5306 31.1362 20.2593 31.3176C21.6031 31.6551 26.9101 31.6606 26.9101 31.6606C26.9101 31.6606 32.2316 31.6661 33.5618 31.3443C33.9206 31.2543 34.2479 31.0792 34.5111 30.8365C34.7743 30.5938 34.9645 30.2917 35.0627 29.9602C35.4143 28.7317 35.4169 26.1826 35.4169 26.1826C35.4169 26.1826 35.4339 23.6195 35.0712 22.3901ZM25.2207 28.515L25.2249 23.8047L29.6477 26.1638L25.2207 28.515Z" fill="white"/>
</svg>
