<svg width="21" height="21" viewBox="0 0 21 21" fill="none" xmlns="http://www.w3.org/2000/svg">
<path fill-rule="evenodd" clip-rule="evenodd" d="M9.8531 0.0625C7.38908 0.0625 5.02598 1.04133 3.28365 2.78365C1.54133 4.52598 0.5625 6.88908 0.5625 9.3531C0.5625 11.8171 1.54133 14.1802 3.28365 15.9225C5.02598 17.6649 7.38908 18.6437 9.8531 18.6437C12.0042 18.6437 14.0784 17.8977 15.7298 16.5489L19.6406 20.4667L20.9676 19.142L17.055 15.2224C18.3999 13.5722 19.1437 11.501 19.1437 9.3531C19.1437 6.88908 18.1649 4.52598 16.4225 2.78365C14.6802 1.04133 12.3171 0.0625 9.8531 0.0625ZM4.60948 4.10948C6.00017 2.71878 7.88636 1.9375 9.8531 1.9375C11.8198 1.9375 13.706 2.71878 15.0967 4.10948C16.4874 5.50017 17.2687 7.38636 17.2687 9.3531C17.2687 11.3198 16.4874 13.206 15.0967 14.5967C13.706 15.9874 11.8198 16.7687 9.8531 16.7687C7.88636 16.7687 6.00017 15.9874 4.60948 14.5967C3.21878 13.206 2.4375 11.3198 2.4375 9.3531C2.4375 7.38636 3.21878 5.50017 4.60948 4.10948Z" fill="white"/>
</svg>
