<svg width="101" height="100" viewBox="0 0 101 100" fill="none" xmlns="http://www.w3.org/2000/svg">
<rect x="0.285645" width="100" height="100" rx="50" fill="url(#paint0_linear_285_129)"/>
<g filter="url(#filter0_d_285_129)">
<g filter="url(#filter1_d_285_129)">
<path fill-rule="evenodd" clip-rule="evenodd" d="M72.9935 42.8187L72.4563 43.5218C72.324 43.6931 72.1573 43.8342 71.9671 43.936C71.777 44.0377 71.5677 44.0978 71.353 44.1122C71.1382 44.1266 70.923 44.095 70.7212 44.0195C70.5194 43.9441 70.3356 43.8264 70.182 43.6743L54.362 27.816C53.966 27.4162 53.4948 27.1005 52.9761 26.8874C52.4573 26.6743 51.9015 26.5682 51.3415 26.5753C50.7815 26.5824 50.2285 26.7026 49.7152 26.9288C49.202 27.155 48.7388 27.4826 48.3529 27.8923L31.9538 45.1567C31.9112 45.2024 31.8588 45.2375 31.8006 45.2593C31.7424 45.2811 31.68 45.289 31.6182 45.2825C31.5565 45.2759 31.497 45.255 31.4446 45.2215C31.3922 45.1879 31.3481 45.1425 31.3159 45.089L30.1997 43.1745C29.9647 42.7678 29.3605 43.0389 29.4696 43.4709L31.4922 49.2483C31.5212 49.3257 31.5729 49.3923 31.6404 49.4392C31.7078 49.4861 31.7879 49.5112 31.8699 49.511H34.2449C34.2745 49.5074 34.3046 49.5101 34.333 49.5192C34.3615 49.5282 34.3876 49.5432 34.4099 49.5632C34.4321 49.5833 34.4499 49.6079 34.462 49.6354C34.4741 49.6629 34.4801 49.6927 34.4799 49.7227L34.6981 66.75C34.7049 67.1473 34.8498 67.5296 35.1075 67.8301C35.3653 68.1305 35.7195 68.3299 36.1081 68.3934H36.8802C38.8357 68.3087 41.9158 68.2663 45.4575 68.2748C45.7557 68.276 46.0479 68.1915 46.3002 68.0311C46.5525 67.8707 46.7544 67.641 46.882 67.369C47.0097 67.0971 47.0579 66.794 47.0212 66.4953C46.9844 66.1967 46.8641 65.9148 46.6744 65.6826C39.7253 57.3469 39.8679 52.3065 39.9099 51.722C39.9141 51.6769 39.9141 51.6315 39.9099 51.5864C39.9099 45.6565 45.1553 40.7771 51.5588 40.7771C57.9623 40.7771 63.2497 45.6227 63.2497 51.6288V51.8151C63.2497 52.8063 63.0734 57.8213 56.2838 65.8351C56.1002 66.0417 55.9757 66.2948 55.9234 66.5673C55.8711 66.8398 55.8931 67.1215 55.987 67.3824C56.0809 67.6433 56.2433 67.8735 56.4567 68.0486C56.67 68.2237 56.9265 68.337 57.1987 68.3765H68.0334C68.2135 68.2168 68.3577 68.02 68.4561 67.7993C68.5546 67.5787 68.6051 67.3393 68.6042 67.0973L68.5371 49.7143C68.5358 49.6843 68.5408 49.6543 68.5518 49.6265C68.5629 49.5986 68.5797 49.5734 68.6011 49.5526C68.6225 49.5317 68.6481 49.5157 68.6761 49.5056C68.7041 49.4956 68.7339 49.4916 68.7636 49.494H70.4421C70.5181 49.497 70.5932 49.4767 70.6575 49.4359C70.7219 49.3951 70.7727 49.3357 70.803 49.2653L73.6733 43.1829C73.8663 42.7678 73.2704 42.4375 72.9851 42.8017L72.9935 42.8187ZM60.2367 52.0779C60.2367 47.622 56.3928 44.0048 51.6594 44.0048C46.926 44.0048 43.1074 47.5881 43.1074 52.0271C43.1115 52.0551 43.1115 52.0837 43.1074 52.1118L43.1072 52.1466C43.1021 52.7766 43.0632 57.6169 50.7446 65.4201C50.9885 65.6658 51.319 65.8038 51.6636 65.8038C52.0082 65.8038 52.3388 65.6658 52.5826 65.4201C60.136 57.796 60.3037 53.0521 60.2786 52.2049V52.0694L60.2367 52.0779ZM57.6937 52.2981C57.7037 53.4982 57.3602 54.6742 56.7069 55.6769C56.0536 56.6797 55.1201 57.4639 54.0245 57.9301C52.9289 58.3964 51.7208 58.5236 50.5534 58.2957C49.3861 58.0677 48.3123 57.4949 47.468 56.6499C46.6238 55.8049 46.0472 54.7257 45.8115 53.5494C45.5759 52.3731 45.6918 51.1527 46.1445 50.043C46.5971 48.9332 47.3661 47.9842 48.354 47.3164C49.3419 46.6486 50.504 46.292 51.693 46.292C53.2713 46.2987 54.7831 46.9345 55.8991 48.061C57.0151 49.1875 57.6451 50.7135 57.6517 52.3066L57.6937 52.2981ZM51.5923 70.8332C53.0191 70.8332 54.1772 70.0708 54.1772 69.2236C54.1772 68.3342 53.0107 67.6056 51.5923 67.6056C50.174 67.6056 49.0159 68.3342 49.0159 69.2236C49.0159 70.1131 50.1656 70.8332 51.5923 70.8332Z" fill="white"/>
</g>
</g>
<defs>
<filter id="filter0_d_285_129" x="-1.38086" y="-1.66675" width="103.333" height="103.333" filterUnits="userSpaceOnUse" color-interpolation-filters="sRGB">
<feFlood flood-opacity="0" result="BackgroundImageFix"/>
<feColorMatrix in="SourceAlpha" type="matrix" values="0 0 0 0 0 0 0 0 0 0 0 0 0 0 0 0 0 0 127 0" result="hardAlpha"/>
<feOffset/>
<feGaussianBlur stdDeviation="5"/>
<feComposite in2="hardAlpha" operator="out"/>
<feColorMatrix type="matrix" values="0 0 0 0 0 0 0 0 0 0 0 0 0 0 0 0 0 0 0.5 0"/>
<feBlend mode="normal" in2="BackgroundImageFix" result="effect1_dropShadow_285_129"/>
<feBlend mode="normal" in="SourceGraphic" in2="effect1_dropShadow_285_129" result="shape"/>
</filter>
<filter id="filter1_d_285_129" x="19.4565" y="16.575" width="64.2544" height="64.2583" filterUnits="userSpaceOnUse" color-interpolation-filters="sRGB">
<feFlood flood-opacity="0" result="BackgroundImageFix"/>
<feColorMatrix in="SourceAlpha" type="matrix" values="0 0 0 0 0 0 0 0 0 0 0 0 0 0 0 0 0 0 127 0" result="hardAlpha"/>
<feOffset/>
<feGaussianBlur stdDeviation="5"/>
<feComposite in2="hardAlpha" operator="out"/>
<feColorMatrix type="matrix" values="0 0 0 0 0.591667 0 0 0 0 0.3905 0 0 0 0 0 0 0 0 0.25 0"/>
<feBlend mode="normal" in2="BackgroundImageFix" result="effect1_dropShadow_285_129"/>
<feBlend mode="normal" in="SourceGraphic" in2="effect1_dropShadow_285_129" result="shape"/>
</filter>
<linearGradient id="paint0_linear_285_129" x1="7.36898" y1="7.08333" x2="80.2856" y2="105.833" gradientUnits="userSpaceOnUse">
<stop stop-color="#FFD178"/>
<stop offset="0.609375" stop-color="#FBA704"/>
</linearGradient>
</defs>
</svg>
