<svg width="101" height="100" viewBox="0 0 101 100" fill="none" xmlns="http://www.w3.org/2000/svg">
<rect x="0.428711" width="100" height="100" rx="50" fill="url(#paint0_linear_285_989)"/>
<path fill-rule="evenodd" clip-rule="evenodd" d="M49.9471 33.568C50.3545 34.0699 50.8687 34.4813 51.4547 34.7741H51.9371C52.4686 34.559 52.9403 34.2258 53.314 33.8015C53.6607 33.4675 53.9758 33.1769 54.261 32.9139C55.8614 31.4382 56.5202 30.8306 56.5202 28.2962C56.4444 27.1785 55.9507 26.1257 55.1313 25.3345C54.3119 24.5433 53.2229 24.0679 52.0678 23.9971H51.3943C50.2392 24.0679 49.1502 24.5433 48.3308 25.3345C47.5114 26.1257 47.0178 27.1785 46.942 28.2962C46.942 30.7727 47.555 31.3406 49.0977 32.7698C49.3546 33.0077 49.6372 33.2695 49.9471 33.568ZM51.7361 25.5047C52.2741 25.5162 52.7965 25.681 53.2381 25.9787C53.6797 26.2763 54.0207 26.6933 54.2184 27.1777C54.4161 27.662 54.4617 28.192 54.3495 28.7013C54.2373 29.2106 53.9722 29.6765 53.5876 30.0407C53.203 30.4049 52.716 30.6511 52.1874 30.7486C51.6588 30.846 51.1121 30.7903 50.6161 30.5885C50.1201 30.3867 49.6967 30.0476 49.3989 29.6139C49.1011 29.1802 48.9422 28.6711 48.942 28.1503C48.946 27.7991 49.0213 27.452 49.1639 27.1289C49.3064 26.8058 49.5134 26.5131 49.7729 26.2674C50.0323 26.0218 50.3393 25.828 50.6761 25.6971C51.013 25.5662 51.3732 25.5008 51.7361 25.5047ZM73.6463 69.7802H70.6311C71.0731 69.5221 71.4393 69.1585 71.6944 68.7242C71.9496 68.2899 72.0853 67.7995 72.0885 67.2999V61.0943C72.0885 60.3204 71.7707 59.5782 71.2053 59.031C70.6398 58.4838 69.873 58.1764 69.0733 58.1764H62.661C61.8614 58.1764 61.0944 58.4838 60.529 59.031C59.9635 59.5782 59.6459 60.3204 59.6459 61.0943V67.2999C59.6501 67.8004 59.7872 68.2914 60.0442 68.7258C60.3012 69.1602 60.6693 69.5233 61.1132 69.7802H53.7461V51.2997C54.9323 51.8356 56.2261 52.1113 57.5351 52.107C58.6063 52.1318 59.672 51.9511 60.6708 51.5755C61.6695 51.1999 62.5816 50.6368 63.3545 49.9185C64.1235 50.6391 65.0335 51.2039 66.031 51.5797C67.0286 51.9555 68.0937 52.1348 69.1637 52.107C73.184 52.107 76.4605 49.6364 76.4605 46.5823C76.4267 45.7154 76.1666 44.8709 75.7044 44.1276C75.2421 43.3844 74.5929 42.7665 73.8172 42.3317L57.3945 29.6872V29.9401C57.258 30.5943 57.0028 31.22 56.6407 31.7881L62.4801 41.5731C62.548 41.6909 62.5833 41.8238 62.5821 41.9587C62.581 42.0937 62.5436 42.226 62.4737 42.3428C62.4037 42.4595 62.3036 42.5566 62.1832 42.6246C62.0627 42.6926 61.9261 42.7291 61.7866 42.7305C61.6458 42.7311 61.5072 42.6953 61.3853 42.6269C61.2635 42.5585 61.1626 42.46 61.0931 42.3415L55.5151 33.1304L55.0125 33.6167C54.4095 34.1906 53.6254 34.9298 52.6505 35.8344L52.5299 35.9122V45.0163C52.5426 45.1251 52.5313 45.2353 52.4969 45.3396C52.4625 45.444 52.4059 45.5401 52.3304 45.6217C52.255 45.7034 52.1626 45.7687 52.0593 45.8134C51.956 45.8582 51.8442 45.8813 51.731 45.8813C51.6178 45.8813 51.5058 45.8582 51.4026 45.8134C51.2993 45.7687 51.207 45.7034 51.1315 45.6217C51.0561 45.5401 50.9993 45.444 50.9649 45.3396C50.9305 45.2353 50.9193 45.1251 50.9319 45.0163V35.883C50.8505 35.8268 50.7732 35.765 50.7008 35.6982L48.3991 33.5389V33.4903L42.8612 42.3512C42.79 42.4647 42.6896 42.5584 42.5699 42.6232C42.4501 42.688 42.3151 42.7216 42.1779 42.7208C42.0322 42.7183 41.8899 42.678 41.7658 42.6041C41.6764 42.5513 41.5987 42.4819 41.5372 42.4C41.4757 42.318 41.4316 42.2251 41.4073 42.1266C41.383 42.0281 41.3791 41.9258 41.3957 41.8258C41.4124 41.7258 41.4494 41.63 41.5044 41.5439L47.2634 32.3328C46.7079 31.6511 46.3289 30.8507 46.1579 29.9984V29.8331C40.9818 33.6362 33.4841 39.2095 29.5241 42.4776C28.7978 42.9183 28.1943 43.5247 27.7667 44.2438C27.3391 44.9629 27.1005 45.7725 27.0718 46.6017C27.0718 49.6559 30.3382 52.1264 34.3685 52.1264C35.4721 52.155 36.5699 51.9633 37.5935 51.5634C38.6172 51.1634 39.5447 50.5638 40.3184 49.8018C41.0922 50.5638 42.0198 51.1634 43.0434 51.5634C44.0671 51.9633 45.1649 52.155 46.2684 52.1264C47.3786 52.129 48.4796 51.9311 49.5148 51.5428V69.7802H43.6452C43.7781 69.496 43.8466 69.1876 43.8462 68.8756V65.9576C43.8462 64.6543 43.1729 61.6001 41.1426 63.5843H37.1224C34.6399 61.639 34.4188 64.6543 34.4188 65.9576V68.8756C34.4184 69.1876 34.4869 69.496 34.6198 69.7802H31.7553C31.5983 69.7802 31.4428 69.8101 31.2976 69.8683C31.1525 69.9265 31.0207 70.0117 30.9096 70.1192C30.7986 70.2267 30.7105 70.3543 30.6503 70.4947C30.5902 70.6351 30.5593 70.7857 30.5593 70.9377V72.2799C30.558 72.4327 30.588 72.5843 30.6475 72.7258C30.707 72.8674 30.7949 72.9962 30.9061 73.1047C31.0173 73.2132 31.1495 73.2993 31.2953 73.3581C31.4411 73.4169 31.5974 73.4471 31.7553 73.4471H73.7568C74.0767 73.4471 74.3834 73.3241 74.6096 73.1052C74.8358 72.8864 74.963 72.5895 74.963 72.2799V70.9377C74.9623 70.7758 74.9267 70.6158 74.8587 70.4679C74.7907 70.32 74.6916 70.1874 74.5678 70.0785C74.444 69.9697 74.2981 69.8869 74.1395 69.8356C73.9808 69.7842 73.8129 69.7653 73.6463 69.7802ZM65.3545 64.8099C64.1987 64.4306 63.4048 63.9053 63.4048 62.8646C63.4224 62.3911 63.6179 61.9402 63.9547 61.5963C64.2914 61.2525 64.7463 61.0394 65.2339 60.9971V60.0244H66.2591V60.9971C66.8004 61.0048 67.3342 61.1207 67.8271 61.3375L67.5154 62.5242C67.0309 62.2918 66.4983 62.1688 65.9575 62.1643C65.254 62.1643 65.0229 62.4561 65.0229 62.7479C65.0229 63.0397 65.4049 63.3217 66.3195 63.6524C67.6059 64.0901 68.1285 64.6251 68.1285 65.5977C68.1147 66.0962 67.9092 66.5718 67.5524 66.9316C67.1955 67.2913 66.7129 67.5094 66.1987 67.5431V68.613H65.1937V67.6403C64.5544 67.6214 63.927 67.4687 63.3545 67.1929L63.6762 65.9674C64.2293 66.2572 64.8462 66.414 65.4751 66.4245C66.0882 66.4245 66.4802 66.1911 66.4802 65.7728C66.4802 65.3546 66.1586 65.0725 65.3545 64.8099ZM40.8479 62.1296C40.3521 62.4502 39.7692 62.6213 39.1729 62.6213C38.3732 62.6213 37.6062 62.3139 37.0408 61.7667C36.4753 61.2194 36.1577 60.4772 36.1577 59.7033C36.1577 59.1262 36.3344 58.5621 36.6657 58.0822C36.997 57.6023 37.468 57.2283 38.019 57.0075C38.5699 56.7866 39.1761 56.7288 39.761 56.8414C40.3459 56.954 40.8831 57.2319 41.3048 57.64C41.7265 58.0481 42.0137 58.568 42.13 59.1341C42.2464 59.7001 42.1867 60.2868 41.9585 60.82C41.7303 61.3532 41.3438 61.8089 40.8479 62.1296Z" fill="white"/>
<defs>
<linearGradient id="paint0_linear_285_989" x1="7.51204" y1="7.08333" x2="80.4287" y2="105.833" gradientUnits="userSpaceOnUse">
<stop stop-color="#F276B6"/>
<stop offset="0.609375" stop-color="#BC1A6E"/>
</linearGradient>
</defs>
</svg>
