<svg width="136" height="41" viewBox="0 0 136 41" fill="none" xmlns="http://www.w3.org/2000/svg">
<g clip-path="url(#clip0_11_1012)">
<path d="M130.54 40.6036H5.24003C2.48503 40.6036 0.228027 38.3736 0.228027 35.6496V5.92764C0.228027 3.20464 2.48503 0.97464 5.24003 0.97464H130.54C133.295 0.97464 135.551 3.20464 135.551 5.92764V35.6506C135.551 38.3746 133.295 40.6046 130.539 40.6046L130.54 40.6036Z" fill="black"/>
<path d="M130.54 1.76864C132.86 1.76864 134.748 3.63464 134.748 5.92864V35.6496C134.748 37.9436 132.86 39.8096 130.539 39.8096H5.24003C2.92003 39.8096 1.03203 37.9436 1.03203 35.6496V5.92764C1.03203 3.63464 2.92003 1.76764 5.24003 1.76764H130.54M130.54 0.97464H5.24003C2.48503 0.97464 0.228027 3.20464 0.228027 5.92764V35.6506C0.228027 38.3746 2.48503 40.6046 5.24003 40.6046H130.54C133.295 40.6046 135.551 38.3746 135.551 35.6506V5.92764C135.551 3.20464 133.296 0.97464 130.54 0.97464Z" fill="#A6A6A6"/>
<path d="M47.7587 11.1227C47.7587 11.95 47.5081 12.6125 47.0144 13.1066C46.4468 13.6924 45.7076 13.9871 44.8017 13.9871C44.3913 13.994 43.9838 13.9186 43.6037 13.7656C43.2236 13.6125 42.8788 13.385 42.5901 13.0967C41.9824 12.4973 41.6792 11.7617 41.6792 10.8812C41.6792 10.0007 41.9824 9.26508 42.5901 8.67065C42.8779 8.38077 43.2224 8.15187 43.6026 7.99793C43.9828 7.84399 44.3908 7.76823 44.8017 7.77528C45.2327 7.77528 45.6437 7.8632 46.0358 8.02667C46.4268 8.19138 46.745 8.4143 46.9756 8.68922L46.4518 9.21183C46.0496 8.74248 45.5021 8.51089 44.8017 8.51089C44.1701 8.51089 43.6226 8.72885 43.1577 9.16849C42.6979 9.60936 42.4673 10.1803 42.4673 10.8812C42.4673 11.5821 42.6979 12.158 43.1577 12.5989C43.5958 13.0248 44.1871 13.2613 44.8017 13.2565C45.472 13.2565 46.0358 13.0336 46.4807 12.5939C46.7739 12.3029 46.9405 11.9017 46.9844 11.389H44.8017V10.6732H47.7136C47.7487 10.828 47.7587 10.9778 47.7587 11.1227ZM52.3785 8.64093H49.6432V10.5233H52.1091V11.2391H49.6432V13.1215H52.3785V13.8509H48.8689V7.9115H52.3785V8.64093ZM55.6388 13.8509H54.8644V8.64093H53.1867V7.9115H57.3178V8.64093H55.6388V13.8509ZM60.3074 13.8509V7.9115H61.0805V13.8509H60.3074ZM64.5074 13.8509H63.7393V8.64093H62.0553V7.9115H66.1914V8.64093H64.5074V13.8509ZM74.0126 13.0868C73.4199 13.6874 72.6857 13.9871 71.8098 13.9871C70.929 13.9871 70.1947 13.6874 69.6021 13.0868C69.0107 12.4874 68.7162 11.7518 68.7162 10.8812C68.7162 10.0106 69.0107 9.27499 69.6021 8.6756C70.1947 8.07497 70.929 7.77528 71.8098 7.77528C72.6807 7.77528 73.4149 8.07497 74.0076 8.68055C74.604 9.2849 74.8985 10.0156 74.8985 10.8812C74.8985 11.7518 74.604 12.4874 74.0126 13.0868ZM70.1747 12.589C70.6208 13.0336 71.1633 13.2565 71.8098 13.2565C72.4514 13.2565 72.9989 13.0336 73.44 12.589C73.8848 12.1444 74.1103 11.5735 74.1103 10.8812C74.1103 10.1889 73.8848 9.61803 73.44 9.17344C73.2296 8.95702 72.9761 8.78598 72.6956 8.67111C72.415 8.55623 72.1135 8.49999 71.8098 8.50594C71.1633 8.50594 70.6208 8.72885 70.1747 9.17344C69.7299 9.61803 69.5043 10.1889 69.5043 10.8812C69.5043 11.5735 69.7299 12.1444 70.1747 12.589ZM75.9848 13.8509V7.9115H76.9246L79.8465 12.5308H79.8804L79.8465 11.389V7.9115H80.6196V13.8509H79.8127L76.7529 9.00378H76.7191L76.7529 10.1505V13.8509H75.9848Z" fill="white" stroke="white" stroke-width="0.199309" stroke-miterlimit="10"/>
<path d="M68.5262 22.5256C66.1722 22.5256 64.2492 24.2956 64.2492 26.7396C64.2492 29.1636 66.1722 30.9526 68.5262 30.9526C70.8862 30.9526 72.8092 29.1626 72.8092 26.7396C72.8092 24.2966 70.8862 22.5256 68.5262 22.5256ZM68.5262 29.2936C67.2352 29.2936 66.1232 28.2396 66.1232 26.7396C66.1232 25.2196 67.2352 24.1846 68.5262 24.1846C69.8182 24.1846 70.9352 25.2196 70.9352 26.7396C70.9352 28.2396 69.8182 29.2936 68.5262 29.2936ZM59.1932 22.5256C56.8332 22.5256 54.9152 24.2956 54.9152 26.7396C54.9152 29.1636 56.8332 30.9526 59.1932 30.9526C61.5512 30.9526 63.4712 29.1626 63.4712 26.7396C63.4712 24.2966 61.5512 22.5256 59.1932 22.5256ZM59.1932 29.2936C57.9002 29.2936 56.7852 28.2396 56.7852 26.7396C56.7852 25.2196 57.9002 24.1846 59.1932 24.1846C60.4852 24.1846 61.5962 25.2196 61.5962 26.7396C61.5962 28.2396 60.4852 29.2936 59.1932 29.2936ZM48.0862 23.8166V25.6076H52.4132C52.2862 26.6076 51.9482 27.3436 51.4292 27.8566C50.7982 28.4766 49.8142 29.1636 48.0862 29.1636C47.4611 29.167 46.8416 29.0462 46.2636 28.8082C45.6856 28.5703 45.1605 28.2199 44.719 27.7775C44.2774 27.3351 43.928 26.8094 43.6912 26.2309C43.4543 25.6524 43.3347 25.0327 43.3392 24.4076C43.3347 23.7826 43.4543 23.1628 43.6912 22.5844C43.928 22.0059 44.2774 21.4802 44.719 21.0378C45.1605 20.5954 45.6856 20.245 46.2636 20.0071C46.8416 19.7691 47.4611 19.6483 48.0862 19.6516C49.5262 19.6516 50.5742 20.2086 51.3462 20.9286L52.6232 19.6666C51.5432 18.6466 50.1032 17.8626 48.0862 17.8626C44.4362 17.8626 41.3662 20.7986 41.3662 24.4076C41.3662 28.0166 44.4362 30.9526 48.0862 30.9526C50.0602 30.9526 51.5422 30.3136 52.7072 29.1146C53.9012 27.9346 54.2742 26.2746 54.2742 24.9346C54.2742 24.5186 54.2392 24.1366 54.1762 23.8166H48.0862ZM93.5022 25.2056C93.1502 24.2626 92.0642 22.5256 89.8512 22.5256C87.6582 22.5256 85.8332 24.2326 85.8332 26.7396C85.8332 29.0996 87.6392 30.9526 90.0612 30.9526C90.7619 30.9593 91.4532 30.7922 92.0735 30.4662C92.6937 30.1402 93.2234 29.6655 93.6152 29.0846L92.1622 28.1276C91.6772 28.8286 91.0162 29.2936 90.0622 29.2936C89.1132 29.2936 88.4322 28.8636 87.9972 28.0166L93.6992 25.6846L93.5022 25.2056ZM87.6882 26.6086C87.6392 24.9836 88.9652 24.1516 89.9152 24.1516C90.6592 24.1516 91.2912 24.5186 91.5012 25.0456L87.6882 26.6086ZM83.0542 30.6966H84.9282V18.3126H83.0542V30.6966ZM79.9842 23.4636H79.9212C79.5002 22.9706 78.6972 22.5256 77.6792 22.5256C75.5442 22.5256 73.5922 24.3776 73.5922 26.7536C73.5922 29.1146 75.5442 30.9526 77.6792 30.9526C78.6972 30.9526 79.5002 30.5026 79.9212 29.9956H79.9842V30.5996C79.9842 32.2106 79.1132 33.0766 77.7082 33.0766C76.5632 33.0766 75.8532 32.2596 75.5592 31.5716L73.9292 32.2446C74.3992 33.3616 75.6432 34.7356 77.7092 34.7356C79.9062 34.7356 81.7602 33.4576 81.7602 30.3486V22.7806H79.9842V23.4636ZM77.8402 29.2936C76.5482 29.2936 75.4672 28.2236 75.4672 26.7536C75.4672 25.2686 76.5482 24.1846 77.8402 24.1846C79.1132 24.1846 80.1172 25.2686 80.1172 26.7536C80.1172 28.2236 79.1132 29.2936 77.8402 29.2936ZM102.278 18.3126H97.7952V30.6966H99.6652V26.0036H102.278C104.354 26.0036 106.39 24.5186 106.39 22.1576C106.39 19.7976 104.35 18.3126 102.278 18.3126ZM102.327 24.2816H99.6642V20.0346H102.327C102.899 20.0261 103.452 20.2448 103.863 20.6428C104.274 21.0407 104.51 21.5855 104.52 22.1576C104.52 23.1156 103.723 24.2816 102.327 24.2816ZM113.883 22.5016C112.533 22.5016 111.128 23.0916 110.55 24.3976L112.21 25.0846C112.566 24.3976 113.223 24.1746 113.917 24.1746C114.887 24.1746 115.871 24.7506 115.886 25.7676V25.8976C115.547 25.7046 114.823 25.4176 113.932 25.4176C112.145 25.4176 110.325 26.3906 110.325 28.2046C110.325 29.8646 111.788 30.9326 113.434 30.9326C114.692 30.9326 115.386 30.3726 115.822 29.7196H115.886V30.6766H117.691V25.9266C117.691 23.7306 116.032 22.5016 113.883 22.5016ZM113.658 29.2886C113.046 29.2886 112.194 28.9886 112.194 28.2386C112.194 27.2806 113.257 26.9126 114.177 26.9126C115 26.9126 115.386 27.0926 115.886 27.3286C115.813 27.869 115.548 28.3649 115.139 28.725C114.729 29.0852 114.203 29.2853 113.658 29.2886ZM124.269 22.7726L122.121 28.1416H122.057L119.835 22.7726H117.819L121.157 30.2756L119.252 34.4496H121.206L126.349 22.7726H124.269ZM107.418 30.6966H109.292V18.3126H107.418V30.6966Z" fill="white"/>
<path d="M10.688 8.4431C10.3936 8.74774 10.2231 9.22206 10.2231 9.83631V31.7463C10.2231 32.3605 10.3936 32.8348 10.688 33.1395L10.7607 33.2063L23.1828 20.9337V20.6439L10.7607 8.37127L10.688 8.4431Z" fill="url(#paint0_linear_11_1012)"/>
<path d="M27.3187 25.0266L23.1826 20.9337V20.6439L27.3237 16.551L27.4165 16.6042L32.3207 19.3622C33.7203 20.1448 33.7203 21.4328 32.3207 22.2204L27.4165 24.9734L27.3187 25.0266Z" fill="url(#paint1_linear_11_1012)"/>
<path d="M27.4167 24.9734L23.1828 20.7888L10.688 33.1395C11.1528 33.6224 11.9109 33.6807 12.773 33.1977L27.4167 24.9734Z" fill="url(#paint2_linear_11_1012)"/>
<path d="M27.4167 16.6042L12.773 8.37993C11.9109 7.90191 11.1528 7.96011 10.688 8.44309L23.1828 20.7888L27.4167 16.6042Z" fill="url(#paint3_linear_11_1012)"/>
</g>
<defs>
<linearGradient id="paint0_linear_11_1012" x1="22.0802" y1="31.9741" x2="5.45393" y2="15.1531" gradientUnits="userSpaceOnUse">
<stop stop-color="#00A0FF"/>
<stop offset="0.007" stop-color="#00A1FF"/>
<stop offset="0.26" stop-color="#00BEFF"/>
<stop offset="0.512" stop-color="#00D2FF"/>
<stop offset="0.76" stop-color="#00DFFF"/>
<stop offset="1" stop-color="#00E3FF"/>
</linearGradient>
<linearGradient id="paint1_linear_11_1012" x1="34.1428" y1="20.7878" x2="9.8889" y2="20.7878" gradientUnits="userSpaceOnUse">
<stop stop-color="#FFE000"/>
<stop offset="0.409" stop-color="#FFBD00"/>
<stop offset="0.775" stop-color="#FFA500"/>
<stop offset="1" stop-color="#FF9C00"/>
</linearGradient>
<linearGradient id="paint2_linear_11_1012" x1="25.1144" y1="18.5141" x2="2.56897" y2="-4.29678" gradientUnits="userSpaceOnUse">
<stop stop-color="#FF3A44"/>
<stop offset="1" stop-color="#C31162"/>
</linearGradient>
<linearGradient id="paint3_linear_11_1012" x1="7.54248" y1="40.429" x2="17.6106" y2="30.2424" gradientUnits="userSpaceOnUse">
<stop stop-color="#32A071"/>
<stop offset="0.069" stop-color="#2DA771"/>
<stop offset="0.476" stop-color="#15CF74"/>
<stop offset="0.801" stop-color="#06E775"/>
<stop offset="1" stop-color="#00F076"/>
</linearGradient>
<clipPath id="clip0_11_1012">
<rect width="135.716" height="40.019" fill="white" transform="translate(0 0.660645)"/>
</clipPath>
</defs>
</svg>
